<?xml version="1.0" encoding="utf-8" standalone="no"?>
<!DOCTYPE svg PUBLIC "-//W3C//DTD SVG 1.1//EN"
  "http://www.w3.org/Graphics/SVG/1.1/DTD/svg11.dtd">
<!-- Created with matplotlib (https://matplotlib.org/) -->
<svg height="324pt" version="1.1" viewBox="0 0 504 324" width="504pt" xmlns="http://www.w3.org/2000/svg" xmlns:xlink="http://www.w3.org/1999/xlink">
 <metadata>
  <rdf:RDF xmlns:cc="http://creativecommons.org/ns#" xmlns:dc="http://purl.org/dc/elements/1.1/" xmlns:rdf="http://www.w3.org/1999/02/22-rdf-syntax-ns#">
   <cc:Work>
    <dc:type rdf:resource="http://purl.org/dc/dcmitype/StillImage"/>
    <dc:date>2022-03-14T17:37:06.176855</dc:date>
    <dc:format>image/svg+xml</dc:format>
    <dc:creator>
     <cc:Agent>
      <dc:title>Matplotlib v3.3.3, https://matplotlib.org/</dc:title>
     </cc:Agent>
    </dc:creator>
   </cc:Work>
  </rdf:RDF>
 </metadata>
 <defs>
  <style type="text/css">*{stroke-linecap:butt;stroke-linejoin:round;}</style>
 </defs>
 <g id="figure_1">
  <g id="patch_1">
   <path d="M 0 324 
L 504 324 
L 504 0 
L 0 0 
z
" style="fill:#ffffff;"/>
  </g>
  <g id="axes_1">
   <g id="patch_2">
    <path d="M 63 283.5 
L 453.6 283.5 
L 453.6 38.88 
L 63 38.88 
z
" style="fill:#eaeaf2;"/>
   </g>
   <g id="matplotlib.axis_1">
    <g id="xtick_1">
     <g id="line2d_1">
      <path clip-path="url(#p9f106189b1)" d="M 80.754545 283.5 
L 80.754545 38.88 
" style="fill:none;stroke:#ffffff;stroke-linecap:round;"/>
     </g>
     <g id="text_1">
      <!-- 1 -->
      <g style="fill:#262626;" transform="translate(77.69603 300.873594)scale(0.11 -0.11)">
       <defs>
        <path d="M 37.25 0 
L 28.46875 0 
L 28.46875 56 
Q 25.296875 52.984375 20.140625 49.953125 
Q 14.984375 46.921875 10.890625 45.40625 
L 10.890625 53.90625 
Q 18.265625 57.375 23.78125 62.296875 
Q 29.296875 67.234375 31.59375 71.875 
L 37.25 71.875 
z
" id="ArialMT-49"/>
       </defs>
       <use xlink:href="#ArialMT-49"/>
      </g>
     </g>
    </g>
    <g id="xtick_2">
     <g id="line2d_2">
      <path clip-path="url(#p9f106189b1)" d="M 120.209091 283.5 
L 120.209091 38.88 
" style="fill:none;stroke:#ffffff;stroke-linecap:round;"/>
     </g>
     <g id="text_2">
      <!-- 2 -->
      <g style="fill:#262626;" transform="translate(117.150575 300.873594)scale(0.11 -0.11)">
       <defs>
        <path d="M 50.34375 8.453125 
L 50.34375 0 
L 3.03125 0 
Q 2.9375 3.171875 4.046875 6.109375 
Q 5.859375 10.9375 9.828125 15.625 
Q 13.8125 20.3125 21.34375 26.46875 
Q 33.015625 36.03125 37.109375 41.625 
Q 41.21875 47.21875 41.21875 52.203125 
Q 41.21875 57.421875 37.46875 61 
Q 33.734375 64.59375 27.734375 64.59375 
Q 21.390625 64.59375 17.578125 60.78125 
Q 13.765625 56.984375 13.71875 50.25 
L 4.6875 51.171875 
Q 5.609375 61.28125 11.65625 66.578125 
Q 17.71875 71.875 27.9375 71.875 
Q 38.234375 71.875 44.234375 66.15625 
Q 50.25 60.453125 50.25 52 
Q 50.25 47.703125 48.484375 43.546875 
Q 46.734375 39.40625 42.65625 34.8125 
Q 38.578125 30.21875 29.109375 22.21875 
Q 21.1875 15.578125 18.9375 13.203125 
Q 16.703125 10.84375 15.234375 8.453125 
z
" id="ArialMT-50"/>
       </defs>
       <use xlink:href="#ArialMT-50"/>
      </g>
     </g>
    </g>
    <g id="xtick_3">
     <g id="line2d_3">
      <path clip-path="url(#p9f106189b1)" d="M 159.663636 283.5 
L 159.663636 38.88 
" style="fill:none;stroke:#ffffff;stroke-linecap:round;"/>
     </g>
     <g id="text_3">
      <!-- 3 -->
      <g style="fill:#262626;" transform="translate(156.605121 300.873594)scale(0.11 -0.11)">
       <defs>
        <path d="M 4.203125 18.890625 
L 12.984375 20.0625 
Q 14.5 12.59375 18.140625 9.296875 
Q 21.78125 6 27 6 
Q 33.203125 6 37.46875 10.296875 
Q 41.75 14.59375 41.75 20.953125 
Q 41.75 27 37.796875 30.921875 
Q 33.84375 34.859375 27.734375 34.859375 
Q 25.25 34.859375 21.53125 33.890625 
L 22.515625 41.609375 
Q 23.390625 41.5 23.921875 41.5 
Q 29.546875 41.5 34.03125 44.421875 
Q 38.53125 47.359375 38.53125 53.46875 
Q 38.53125 58.296875 35.25 61.46875 
Q 31.984375 64.65625 26.8125 64.65625 
Q 21.6875 64.65625 18.265625 61.421875 
Q 14.84375 58.203125 13.875 51.765625 
L 5.078125 53.328125 
Q 6.6875 62.15625 12.390625 67.015625 
Q 18.109375 71.875 26.609375 71.875 
Q 32.46875 71.875 37.390625 69.359375 
Q 42.328125 66.84375 44.9375 62.5 
Q 47.5625 58.15625 47.5625 53.265625 
Q 47.5625 48.640625 45.0625 44.828125 
Q 42.578125 41.015625 37.703125 38.765625 
Q 44.046875 37.3125 47.5625 32.6875 
Q 51.078125 28.078125 51.078125 21.140625 
Q 51.078125 11.765625 44.234375 5.25 
Q 37.40625 -1.265625 26.953125 -1.265625 
Q 17.53125 -1.265625 11.296875 4.34375 
Q 5.078125 9.96875 4.203125 18.890625 
z
" id="ArialMT-51"/>
       </defs>
       <use xlink:href="#ArialMT-51"/>
      </g>
     </g>
    </g>
    <g id="xtick_4">
     <g id="line2d_4">
      <path clip-path="url(#p9f106189b1)" d="M 199.118182 283.5 
L 199.118182 38.88 
" style="fill:none;stroke:#ffffff;stroke-linecap:round;"/>
     </g>
     <g id="text_4">
      <!-- 4 -->
      <g style="fill:#262626;" transform="translate(196.059666 300.873594)scale(0.11 -0.11)">
       <defs>
        <path d="M 32.328125 0 
L 32.328125 17.140625 
L 1.265625 17.140625 
L 1.265625 25.203125 
L 33.9375 71.578125 
L 41.109375 71.578125 
L 41.109375 25.203125 
L 50.78125 25.203125 
L 50.78125 17.140625 
L 41.109375 17.140625 
L 41.109375 0 
z
M 32.328125 25.203125 
L 32.328125 57.46875 
L 9.90625 25.203125 
z
" id="ArialMT-52"/>
       </defs>
       <use xlink:href="#ArialMT-52"/>
      </g>
     </g>
    </g>
    <g id="xtick_5">
     <g id="line2d_5">
      <path clip-path="url(#p9f106189b1)" d="M 238.572727 283.5 
L 238.572727 38.88 
" style="fill:none;stroke:#ffffff;stroke-linecap:round;"/>
     </g>
     <g id="text_5">
      <!-- 5 -->
      <g style="fill:#262626;" transform="translate(235.514212 300.873594)scale(0.11 -0.11)">
       <defs>
        <path d="M 4.15625 18.75 
L 13.375 19.53125 
Q 14.40625 12.796875 18.140625 9.390625 
Q 21.875 6 27.15625 6 
Q 33.5 6 37.890625 10.78125 
Q 42.28125 15.578125 42.28125 23.484375 
Q 42.28125 31 38.0625 35.34375 
Q 33.84375 39.703125 27 39.703125 
Q 22.75 39.703125 19.328125 37.765625 
Q 15.921875 35.84375 13.96875 32.765625 
L 5.71875 33.84375 
L 12.640625 70.609375 
L 48.25 70.609375 
L 48.25 62.203125 
L 19.671875 62.203125 
L 15.828125 42.96875 
Q 22.265625 47.46875 29.34375 47.46875 
Q 38.71875 47.46875 45.15625 40.96875 
Q 51.609375 34.46875 51.609375 24.265625 
Q 51.609375 14.546875 45.953125 7.46875 
Q 39.0625 -1.21875 27.15625 -1.21875 
Q 17.390625 -1.21875 11.203125 4.25 
Q 5.03125 9.71875 4.15625 18.75 
z
" id="ArialMT-53"/>
       </defs>
       <use xlink:href="#ArialMT-53"/>
      </g>
     </g>
    </g>
    <g id="xtick_6">
     <g id="line2d_6">
      <path clip-path="url(#p9f106189b1)" d="M 278.027273 283.5 
L 278.027273 38.88 
" style="fill:none;stroke:#ffffff;stroke-linecap:round;"/>
     </g>
     <g id="text_6">
      <!-- 6 -->
      <g style="fill:#262626;" transform="translate(274.968757 300.873594)scale(0.11 -0.11)">
       <defs>
        <path d="M 49.75 54.046875 
L 41.015625 53.375 
Q 39.84375 58.546875 37.703125 60.890625 
Q 34.125 64.65625 28.90625 64.65625 
Q 24.703125 64.65625 21.53125 62.3125 
Q 17.390625 59.28125 14.984375 53.46875 
Q 12.59375 47.65625 12.5 36.921875 
Q 15.671875 41.75 20.265625 44.09375 
Q 24.859375 46.4375 29.890625 46.4375 
Q 38.671875 46.4375 44.84375 39.96875 
Q 51.03125 33.5 51.03125 23.25 
Q 51.03125 16.5 48.125 10.71875 
Q 45.21875 4.9375 40.140625 1.859375 
Q 35.0625 -1.21875 28.609375 -1.21875 
Q 17.625 -1.21875 10.6875 6.859375 
Q 3.765625 14.9375 3.765625 33.5 
Q 3.765625 54.25 11.421875 63.671875 
Q 18.109375 71.875 29.4375 71.875 
Q 37.890625 71.875 43.28125 67.140625 
Q 48.6875 62.40625 49.75 54.046875 
z
M 13.875 23.1875 
Q 13.875 18.65625 15.796875 14.5 
Q 17.71875 10.359375 21.1875 8.171875 
Q 24.65625 6 28.46875 6 
Q 34.03125 6 38.03125 10.484375 
Q 42.046875 14.984375 42.046875 22.703125 
Q 42.046875 30.125 38.078125 34.390625 
Q 34.125 38.671875 28.125 38.671875 
Q 22.171875 38.671875 18.015625 34.390625 
Q 13.875 30.125 13.875 23.1875 
z
" id="ArialMT-54"/>
       </defs>
       <use xlink:href="#ArialMT-54"/>
      </g>
     </g>
    </g>
    <g id="xtick_7">
     <g id="line2d_7">
      <path clip-path="url(#p9f106189b1)" d="M 317.481818 283.5 
L 317.481818 38.88 
" style="fill:none;stroke:#ffffff;stroke-linecap:round;"/>
     </g>
     <g id="text_7">
      <!-- 7 -->
      <g style="fill:#262626;" transform="translate(314.423303 300.873594)scale(0.11 -0.11)">
       <defs>
        <path d="M 4.734375 62.203125 
L 4.734375 70.65625 
L 51.078125 70.65625 
L 51.078125 63.8125 
Q 44.234375 56.546875 37.515625 44.484375 
Q 30.8125 32.421875 27.15625 19.671875 
Q 24.515625 10.6875 23.78125 0 
L 14.75 0 
Q 14.890625 8.453125 18.0625 20.40625 
Q 21.234375 32.375 27.171875 43.484375 
Q 33.109375 54.59375 39.796875 62.203125 
z
" id="ArialMT-55"/>
       </defs>
       <use xlink:href="#ArialMT-55"/>
      </g>
     </g>
    </g>
    <g id="xtick_8">
     <g id="line2d_8">
      <path clip-path="url(#p9f106189b1)" d="M 356.936364 283.5 
L 356.936364 38.88 
" style="fill:none;stroke:#ffffff;stroke-linecap:round;"/>
     </g>
     <g id="text_8">
      <!-- 8 -->
      <g style="fill:#262626;" transform="translate(353.877848 300.873594)scale(0.11 -0.11)">
       <defs>
        <path d="M 17.671875 38.8125 
Q 12.203125 40.828125 9.5625 44.53125 
Q 6.9375 48.25 6.9375 53.421875 
Q 6.9375 61.234375 12.546875 66.546875 
Q 18.171875 71.875 27.484375 71.875 
Q 36.859375 71.875 42.578125 66.421875 
Q 48.296875 60.984375 48.296875 53.171875 
Q 48.296875 48.1875 45.671875 44.5 
Q 43.0625 40.828125 37.75 38.8125 
Q 44.34375 36.671875 47.78125 31.875 
Q 51.21875 27.09375 51.21875 20.453125 
Q 51.21875 11.28125 44.71875 5.03125 
Q 38.234375 -1.21875 27.640625 -1.21875 
Q 17.046875 -1.21875 10.546875 5.046875 
Q 4.046875 11.328125 4.046875 20.703125 
Q 4.046875 27.6875 7.59375 32.390625 
Q 11.140625 37.109375 17.671875 38.8125 
z
M 15.921875 53.71875 
Q 15.921875 48.640625 19.1875 45.40625 
Q 22.46875 42.1875 27.6875 42.1875 
Q 32.765625 42.1875 36.015625 45.375 
Q 39.265625 48.578125 39.265625 53.21875 
Q 39.265625 58.0625 35.90625 61.359375 
Q 32.5625 64.65625 27.59375 64.65625 
Q 22.5625 64.65625 19.234375 61.421875 
Q 15.921875 58.203125 15.921875 53.71875 
z
M 13.09375 20.65625 
Q 13.09375 16.890625 14.875 13.375 
Q 16.65625 9.859375 20.171875 7.921875 
Q 23.6875 6 27.734375 6 
Q 34.03125 6 38.125 10.046875 
Q 42.234375 14.109375 42.234375 20.359375 
Q 42.234375 26.703125 38.015625 30.859375 
Q 33.796875 35.015625 27.4375 35.015625 
Q 21.234375 35.015625 17.15625 30.90625 
Q 13.09375 26.8125 13.09375 20.65625 
z
" id="ArialMT-56"/>
       </defs>
       <use xlink:href="#ArialMT-56"/>
      </g>
     </g>
    </g>
    <g id="xtick_9">
     <g id="line2d_9">
      <path clip-path="url(#p9f106189b1)" d="M 396.390909 283.5 
L 396.390909 38.88 
" style="fill:none;stroke:#ffffff;stroke-linecap:round;"/>
     </g>
     <g id="text_9">
      <!-- 9 -->
      <g style="fill:#262626;" transform="translate(393.332393 300.873594)scale(0.11 -0.11)">
       <defs>
        <path d="M 5.46875 16.546875 
L 13.921875 17.328125 
Q 14.984375 11.375 18.015625 8.6875 
Q 21.046875 6 25.78125 6 
Q 29.828125 6 32.875 7.859375 
Q 35.9375 9.71875 37.890625 12.8125 
Q 39.84375 15.921875 41.15625 21.1875 
Q 42.484375 26.46875 42.484375 31.9375 
Q 42.484375 32.515625 42.4375 33.6875 
Q 39.796875 29.5 35.234375 26.875 
Q 30.671875 24.265625 25.34375 24.265625 
Q 16.453125 24.265625 10.296875 30.703125 
Q 4.15625 37.15625 4.15625 47.703125 
Q 4.15625 58.59375 10.578125 65.234375 
Q 17 71.875 26.65625 71.875 
Q 33.640625 71.875 39.421875 68.109375 
Q 45.21875 64.359375 48.21875 57.390625 
Q 51.21875 50.4375 51.21875 37.25 
Q 51.21875 23.53125 48.234375 15.40625 
Q 45.265625 7.28125 39.375 3.03125 
Q 33.5 -1.21875 25.59375 -1.21875 
Q 17.1875 -1.21875 11.859375 3.4375 
Q 6.546875 8.109375 5.46875 16.546875 
z
M 41.453125 48.140625 
Q 41.453125 55.71875 37.421875 60.15625 
Q 33.40625 64.59375 27.734375 64.59375 
Q 21.875 64.59375 17.53125 59.8125 
Q 13.1875 55.03125 13.1875 47.40625 
Q 13.1875 40.578125 17.3125 36.296875 
Q 21.4375 32.03125 27.484375 32.03125 
Q 33.59375 32.03125 37.515625 36.296875 
Q 41.453125 40.578125 41.453125 48.140625 
z
" id="ArialMT-57"/>
       </defs>
       <use xlink:href="#ArialMT-57"/>
      </g>
     </g>
    </g>
    <g id="xtick_10">
     <g id="line2d_10">
      <path clip-path="url(#p9f106189b1)" d="M 435.845455 283.5 
L 435.845455 38.88 
" style="fill:none;stroke:#ffffff;stroke-linecap:round;"/>
     </g>
     <g id="text_10">
      <!-- 10 -->
      <g style="fill:#262626;" transform="translate(429.728423 300.873594)scale(0.11 -0.11)">
       <defs>
        <path d="M 4.15625 35.296875 
Q 4.15625 48 6.765625 55.734375 
Q 9.375 63.484375 14.515625 67.671875 
Q 19.671875 71.875 27.484375 71.875 
Q 33.25 71.875 37.59375 69.546875 
Q 41.9375 67.234375 44.765625 62.859375 
Q 47.609375 58.5 49.21875 52.21875 
Q 50.828125 45.953125 50.828125 35.296875 
Q 50.828125 22.703125 48.234375 14.96875 
Q 45.65625 7.234375 40.5 3 
Q 35.359375 -1.21875 27.484375 -1.21875 
Q 17.140625 -1.21875 11.234375 6.203125 
Q 4.15625 15.140625 4.15625 35.296875 
z
M 13.1875 35.296875 
Q 13.1875 17.671875 17.3125 11.828125 
Q 21.4375 6 27.484375 6 
Q 33.546875 6 37.671875 11.859375 
Q 41.796875 17.71875 41.796875 35.296875 
Q 41.796875 52.984375 37.671875 58.78125 
Q 33.546875 64.59375 27.390625 64.59375 
Q 21.34375 64.59375 17.71875 59.46875 
Q 13.1875 52.9375 13.1875 35.296875 
z
" id="ArialMT-48"/>
       </defs>
       <use xlink:href="#ArialMT-49"/>
       <use x="55.615234" xlink:href="#ArialMT-48"/>
      </g>
     </g>
    </g>
    <g id="text_11">
     <!-- Number of tasks -->
     <g style="fill:#262626;" transform="translate(214.620938 315.649219)scale(0.12 -0.12)">
      <defs>
       <path d="M 7.625 0 
L 7.625 71.578125 
L 17.328125 71.578125 
L 54.9375 15.375 
L 54.9375 71.578125 
L 64.015625 71.578125 
L 64.015625 0 
L 54.296875 0 
L 16.703125 56.25 
L 16.703125 0 
z
" id="ArialMT-78"/>
       <path d="M 40.578125 0 
L 40.578125 7.625 
Q 34.515625 -1.171875 24.125 -1.171875 
Q 19.53125 -1.171875 15.546875 0.578125 
Q 11.578125 2.34375 9.640625 5 
Q 7.71875 7.671875 6.9375 11.53125 
Q 6.390625 14.109375 6.390625 19.734375 
L 6.390625 51.859375 
L 15.1875 51.859375 
L 15.1875 23.09375 
Q 15.1875 16.21875 15.71875 13.8125 
Q 16.546875 10.359375 19.234375 8.375 
Q 21.921875 6.390625 25.875 6.390625 
Q 29.828125 6.390625 33.296875 8.421875 
Q 36.765625 10.453125 38.203125 13.9375 
Q 39.65625 17.4375 39.65625 24.078125 
L 39.65625 51.859375 
L 48.4375 51.859375 
L 48.4375 0 
z
" id="ArialMT-117"/>
       <path d="M 6.59375 0 
L 6.59375 51.859375 
L 14.453125 51.859375 
L 14.453125 44.578125 
Q 16.890625 48.390625 20.9375 50.703125 
Q 25 53.03125 30.171875 53.03125 
Q 35.9375 53.03125 39.625 50.640625 
Q 43.3125 48.25 44.828125 43.953125 
Q 50.984375 53.03125 60.84375 53.03125 
Q 68.5625 53.03125 72.703125 48.75 
Q 76.859375 44.484375 76.859375 35.59375 
L 76.859375 0 
L 68.109375 0 
L 68.109375 32.671875 
Q 68.109375 37.9375 67.25 40.25 
Q 66.40625 42.578125 64.15625 43.984375 
Q 61.921875 45.40625 58.890625 45.40625 
Q 53.421875 45.40625 49.796875 41.765625 
Q 46.1875 38.140625 46.1875 30.125 
L 46.1875 0 
L 37.40625 0 
L 37.40625 33.6875 
Q 37.40625 39.546875 35.25 42.46875 
Q 33.109375 45.40625 28.21875 45.40625 
Q 24.515625 45.40625 21.359375 43.453125 
Q 18.21875 41.5 16.796875 37.734375 
Q 15.375 33.984375 15.375 26.90625 
L 15.375 0 
z
" id="ArialMT-109"/>
       <path d="M 14.703125 0 
L 6.546875 0 
L 6.546875 71.578125 
L 15.328125 71.578125 
L 15.328125 46.046875 
Q 20.90625 53.03125 29.546875 53.03125 
Q 34.328125 53.03125 38.59375 51.09375 
Q 42.875 49.171875 45.625 45.671875 
Q 48.390625 42.1875 49.953125 37.25 
Q 51.515625 32.328125 51.515625 26.703125 
Q 51.515625 13.375 44.921875 6.09375 
Q 38.328125 -1.171875 29.109375 -1.171875 
Q 19.921875 -1.171875 14.703125 6.5 
z
M 14.59375 26.3125 
Q 14.59375 17 17.140625 12.84375 
Q 21.296875 6.0625 28.375 6.0625 
Q 34.125 6.0625 38.328125 11.0625 
Q 42.53125 16.0625 42.53125 25.984375 
Q 42.53125 36.140625 38.5 40.96875 
Q 34.46875 45.796875 28.765625 45.796875 
Q 23 45.796875 18.796875 40.796875 
Q 14.59375 35.796875 14.59375 26.3125 
z
" id="ArialMT-98"/>
       <path d="M 42.09375 16.703125 
L 51.171875 15.578125 
Q 49.03125 7.625 43.21875 3.21875 
Q 37.40625 -1.171875 28.375 -1.171875 
Q 17 -1.171875 10.328125 5.828125 
Q 3.65625 12.84375 3.65625 25.484375 
Q 3.65625 38.578125 10.390625 45.796875 
Q 17.140625 53.03125 27.875 53.03125 
Q 38.28125 53.03125 44.875 45.953125 
Q 51.46875 38.875 51.46875 26.03125 
Q 51.46875 25.25 51.421875 23.6875 
L 12.75 23.6875 
Q 13.234375 15.140625 17.578125 10.59375 
Q 21.921875 6.0625 28.421875 6.0625 
Q 33.25 6.0625 36.671875 8.59375 
Q 40.09375 11.140625 42.09375 16.703125 
z
M 13.234375 30.90625 
L 42.1875 30.90625 
Q 41.609375 37.453125 38.875 40.71875 
Q 34.671875 45.796875 27.984375 45.796875 
Q 21.921875 45.796875 17.796875 41.75 
Q 13.671875 37.703125 13.234375 30.90625 
z
" id="ArialMT-101"/>
       <path d="M 6.5 0 
L 6.5 51.859375 
L 14.40625 51.859375 
L 14.40625 44 
Q 17.4375 49.515625 20 51.265625 
Q 22.5625 53.03125 25.640625 53.03125 
Q 30.078125 53.03125 34.671875 50.203125 
L 31.640625 42.046875 
Q 28.421875 43.953125 25.203125 43.953125 
Q 22.3125 43.953125 20.015625 42.21875 
Q 17.71875 40.484375 16.75 37.40625 
Q 15.28125 32.71875 15.28125 27.15625 
L 15.28125 0 
z
" id="ArialMT-114"/>
       <path id="ArialMT-32"/>
       <path d="M 3.328125 25.921875 
Q 3.328125 40.328125 11.328125 47.265625 
Q 18.015625 53.03125 27.640625 53.03125 
Q 38.328125 53.03125 45.109375 46.015625 
Q 51.90625 39.015625 51.90625 26.65625 
Q 51.90625 16.65625 48.90625 10.90625 
Q 45.90625 5.171875 40.15625 2 
Q 34.421875 -1.171875 27.640625 -1.171875 
Q 16.75 -1.171875 10.03125 5.8125 
Q 3.328125 12.796875 3.328125 25.921875 
z
M 12.359375 25.921875 
Q 12.359375 15.96875 16.703125 11.015625 
Q 21.046875 6.0625 27.640625 6.0625 
Q 34.1875 6.0625 38.53125 11.03125 
Q 42.875 16.015625 42.875 26.21875 
Q 42.875 35.84375 38.5 40.796875 
Q 34.125 45.75 27.640625 45.75 
Q 21.046875 45.75 16.703125 40.8125 
Q 12.359375 35.890625 12.359375 25.921875 
z
" id="ArialMT-111"/>
       <path d="M 8.6875 0 
L 8.6875 45.015625 
L 0.921875 45.015625 
L 0.921875 51.859375 
L 8.6875 51.859375 
L 8.6875 57.375 
Q 8.6875 62.59375 9.625 65.140625 
Q 10.890625 68.5625 14.078125 70.671875 
Q 17.28125 72.796875 23.046875 72.796875 
Q 26.765625 72.796875 31.25 71.921875 
L 29.9375 64.265625 
Q 27.203125 64.75 24.75 64.75 
Q 20.75 64.75 19.09375 63.03125 
Q 17.4375 61.328125 17.4375 56.640625 
L 17.4375 51.859375 
L 27.546875 51.859375 
L 27.546875 45.015625 
L 17.4375 45.015625 
L 17.4375 0 
z
" id="ArialMT-102"/>
       <path d="M 25.78125 7.859375 
L 27.046875 0.09375 
Q 23.34375 -0.6875 20.40625 -0.6875 
Q 15.625 -0.6875 12.984375 0.828125 
Q 10.359375 2.34375 9.28125 4.8125 
Q 8.203125 7.28125 8.203125 15.1875 
L 8.203125 45.015625 
L 1.765625 45.015625 
L 1.765625 51.859375 
L 8.203125 51.859375 
L 8.203125 64.703125 
L 16.9375 69.96875 
L 16.9375 51.859375 
L 25.78125 51.859375 
L 25.78125 45.015625 
L 16.9375 45.015625 
L 16.9375 14.703125 
Q 16.9375 10.9375 17.40625 9.859375 
Q 17.875 8.796875 18.921875 8.15625 
Q 19.96875 7.515625 21.921875 7.515625 
Q 23.390625 7.515625 25.78125 7.859375 
z
" id="ArialMT-116"/>
       <path d="M 40.4375 6.390625 
Q 35.546875 2.25 31.03125 0.53125 
Q 26.515625 -1.171875 21.34375 -1.171875 
Q 12.796875 -1.171875 8.203125 3 
Q 3.609375 7.171875 3.609375 13.671875 
Q 3.609375 17.484375 5.34375 20.625 
Q 7.078125 23.78125 9.890625 25.6875 
Q 12.703125 27.59375 16.21875 28.5625 
Q 18.796875 29.25 24.03125 29.890625 
Q 34.671875 31.15625 39.703125 32.90625 
Q 39.75 34.71875 39.75 35.203125 
Q 39.75 40.578125 37.25 42.78125 
Q 33.890625 45.75 27.25 45.75 
Q 21.046875 45.75 18.09375 43.578125 
Q 15.140625 41.40625 13.71875 35.890625 
L 5.125 37.0625 
Q 6.296875 42.578125 8.984375 45.96875 
Q 11.671875 49.359375 16.75 51.1875 
Q 21.828125 53.03125 28.515625 53.03125 
Q 35.15625 53.03125 39.296875 51.46875 
Q 43.453125 49.90625 45.40625 47.53125 
Q 47.359375 45.171875 48.140625 41.546875 
Q 48.578125 39.3125 48.578125 33.453125 
L 48.578125 21.734375 
Q 48.578125 9.46875 49.140625 6.21875 
Q 49.703125 2.984375 51.375 0 
L 42.1875 0 
Q 40.828125 2.734375 40.4375 6.390625 
z
M 39.703125 26.03125 
Q 34.90625 24.078125 25.34375 22.703125 
Q 19.921875 21.921875 17.671875 20.9375 
Q 15.4375 19.96875 14.203125 18.09375 
Q 12.984375 16.21875 12.984375 13.921875 
Q 12.984375 10.40625 15.640625 8.0625 
Q 18.3125 5.71875 23.4375 5.71875 
Q 28.515625 5.71875 32.46875 7.9375 
Q 36.421875 10.15625 38.28125 14.015625 
Q 39.703125 17 39.703125 22.796875 
z
" id="ArialMT-97"/>
       <path d="M 3.078125 15.484375 
L 11.765625 16.84375 
Q 12.5 11.625 15.84375 8.84375 
Q 19.1875 6.0625 25.203125 6.0625 
Q 31.25 6.0625 34.171875 8.515625 
Q 37.109375 10.984375 37.109375 14.3125 
Q 37.109375 17.28125 34.515625 19 
Q 32.71875 20.171875 25.53125 21.96875 
Q 15.875 24.421875 12.140625 26.203125 
Q 8.40625 27.984375 6.46875 31.125 
Q 4.546875 34.28125 4.546875 38.09375 
Q 4.546875 41.546875 6.125 44.5 
Q 7.71875 47.46875 10.453125 49.421875 
Q 12.5 50.921875 16.03125 51.96875 
Q 19.578125 53.03125 23.640625 53.03125 
Q 29.734375 53.03125 34.34375 51.265625 
Q 38.96875 49.515625 41.15625 46.5 
Q 43.359375 43.5 44.1875 38.484375 
L 35.59375 37.3125 
Q 35.015625 41.3125 32.203125 43.546875 
Q 29.390625 45.796875 24.265625 45.796875 
Q 18.21875 45.796875 15.625 43.796875 
Q 13.03125 41.796875 13.03125 39.109375 
Q 13.03125 37.40625 14.109375 36.03125 
Q 15.1875 34.625 17.484375 33.6875 
Q 18.796875 33.203125 25.25 31.453125 
Q 34.578125 28.953125 38.25 27.359375 
Q 41.9375 25.78125 44.03125 22.75 
Q 46.140625 19.734375 46.140625 15.234375 
Q 46.140625 10.84375 43.578125 6.953125 
Q 41.015625 3.078125 36.171875 0.953125 
Q 31.34375 -1.171875 25.25 -1.171875 
Q 15.140625 -1.171875 9.84375 3.03125 
Q 4.546875 7.234375 3.078125 15.484375 
z
" id="ArialMT-115"/>
       <path d="M 6.640625 0 
L 6.640625 71.578125 
L 15.4375 71.578125 
L 15.4375 30.765625 
L 36.234375 51.859375 
L 47.609375 51.859375 
L 27.78125 32.625 
L 49.609375 0 
L 38.765625 0 
L 21.625 26.515625 
L 15.4375 20.5625 
L 15.4375 0 
z
" id="ArialMT-107"/>
      </defs>
      <use xlink:href="#ArialMT-78"/>
      <use x="72.216797" xlink:href="#ArialMT-117"/>
      <use x="127.832031" xlink:href="#ArialMT-109"/>
      <use x="211.132812" xlink:href="#ArialMT-98"/>
      <use x="266.748047" xlink:href="#ArialMT-101"/>
      <use x="322.363281" xlink:href="#ArialMT-114"/>
      <use x="355.664062" xlink:href="#ArialMT-32"/>
      <use x="383.447266" xlink:href="#ArialMT-111"/>
      <use x="439.0625" xlink:href="#ArialMT-102"/>
      <use x="466.845703" xlink:href="#ArialMT-32"/>
      <use x="494.628906" xlink:href="#ArialMT-116"/>
      <use x="522.412109" xlink:href="#ArialMT-97"/>
      <use x="578.027344" xlink:href="#ArialMT-115"/>
      <use x="628.027344" xlink:href="#ArialMT-107"/>
      <use x="678.027344" xlink:href="#ArialMT-115"/>
     </g>
    </g>
   </g>
   <g id="matplotlib.axis_2">
    <g id="ytick_1">
     <g id="line2d_11">
      <path clip-path="url(#p9f106189b1)" d="M 63 267.192 
L 453.6 267.192 
" style="fill:none;stroke:#ffffff;stroke-linecap:round;"/>
     </g>
     <g id="text_12">
      <!-- 0.86 -->
      <g style="fill:#262626;" transform="translate(32.092969 271.128797)scale(0.11 -0.11)">
       <defs>
        <path d="M 9.078125 0 
L 9.078125 10.015625 
L 19.09375 10.015625 
L 19.09375 0 
z
" id="ArialMT-46"/>
       </defs>
       <use xlink:href="#ArialMT-48"/>
       <use x="55.615234" xlink:href="#ArialMT-46"/>
       <use x="83.398438" xlink:href="#ArialMT-56"/>
       <use x="139.013672" xlink:href="#ArialMT-54"/>
      </g>
     </g>
    </g>
    <g id="ytick_2">
     <g id="line2d_12">
      <path clip-path="url(#p9f106189b1)" d="M 63 234.576 
L 453.6 234.576 
" style="fill:none;stroke:#ffffff;stroke-linecap:round;"/>
     </g>
     <g id="text_13">
      <!-- 0.88 -->
      <g style="fill:#262626;" transform="translate(32.092969 238.512797)scale(0.11 -0.11)">
       <use xlink:href="#ArialMT-48"/>
       <use x="55.615234" xlink:href="#ArialMT-46"/>
       <use x="83.398438" xlink:href="#ArialMT-56"/>
       <use x="139.013672" xlink:href="#ArialMT-56"/>
      </g>
     </g>
    </g>
    <g id="ytick_3">
     <g id="line2d_13">
      <path clip-path="url(#p9f106189b1)" d="M 63 201.96 
L 453.6 201.96 
" style="fill:none;stroke:#ffffff;stroke-linecap:round;"/>
     </g>
     <g id="text_14">
      <!-- 0.90 -->
      <g style="fill:#262626;" transform="translate(32.092969 205.896797)scale(0.11 -0.11)">
       <use xlink:href="#ArialMT-48"/>
       <use x="55.615234" xlink:href="#ArialMT-46"/>
       <use x="83.398438" xlink:href="#ArialMT-57"/>
       <use x="139.013672" xlink:href="#ArialMT-48"/>
      </g>
     </g>
    </g>
    <g id="ytick_4">
     <g id="line2d_14">
      <path clip-path="url(#p9f106189b1)" d="M 63 169.344 
L 453.6 169.344 
" style="fill:none;stroke:#ffffff;stroke-linecap:round;"/>
     </g>
     <g id="text_15">
      <!-- 0.92 -->
      <g style="fill:#262626;" transform="translate(32.092969 173.280797)scale(0.11 -0.11)">
       <use xlink:href="#ArialMT-48"/>
       <use x="55.615234" xlink:href="#ArialMT-46"/>
       <use x="83.398438" xlink:href="#ArialMT-57"/>
       <use x="139.013672" xlink:href="#ArialMT-50"/>
      </g>
     </g>
    </g>
    <g id="ytick_5">
     <g id="line2d_15">
      <path clip-path="url(#p9f106189b1)" d="M 63 136.728 
L 453.6 136.728 
" style="fill:none;stroke:#ffffff;stroke-linecap:round;"/>
     </g>
     <g id="text_16">
      <!-- 0.94 -->
      <g style="fill:#262626;" transform="translate(32.092969 140.664797)scale(0.11 -0.11)">
       <use xlink:href="#ArialMT-48"/>
       <use x="55.615234" xlink:href="#ArialMT-46"/>
       <use x="83.398438" xlink:href="#ArialMT-57"/>
       <use x="139.013672" xlink:href="#ArialMT-52"/>
      </g>
     </g>
    </g>
    <g id="ytick_6">
     <g id="line2d_16">
      <path clip-path="url(#p9f106189b1)" d="M 63 104.112 
L 453.6 104.112 
" style="fill:none;stroke:#ffffff;stroke-linecap:round;"/>
     </g>
     <g id="text_17">
      <!-- 0.96 -->
      <g style="fill:#262626;" transform="translate(32.092969 108.048797)scale(0.11 -0.11)">
       <use xlink:href="#ArialMT-48"/>
       <use x="55.615234" xlink:href="#ArialMT-46"/>
       <use x="83.398438" xlink:href="#ArialMT-57"/>
       <use x="139.013672" xlink:href="#ArialMT-54"/>
      </g>
     </g>
    </g>
    <g id="ytick_7">
     <g id="line2d_17">
      <path clip-path="url(#p9f106189b1)" d="M 63 71.496 
L 453.6 71.496 
" style="fill:none;stroke:#ffffff;stroke-linecap:round;"/>
     </g>
     <g id="text_18">
      <!-- 0.98 -->
      <g style="fill:#262626;" transform="translate(32.092969 75.432797)scale(0.11 -0.11)">
       <use xlink:href="#ArialMT-48"/>
       <use x="55.615234" xlink:href="#ArialMT-46"/>
       <use x="83.398438" xlink:href="#ArialMT-57"/>
       <use x="139.013672" xlink:href="#ArialMT-56"/>
      </g>
     </g>
    </g>
    <g id="ytick_8">
     <g id="line2d_18">
      <path clip-path="url(#p9f106189b1)" d="M 63 38.88 
L 453.6 38.88 
" style="fill:none;stroke:#ffffff;stroke-linecap:round;"/>
     </g>
     <g id="text_19">
      <!-- 1.00 -->
      <g style="fill:#262626;" transform="translate(32.092969 42.816797)scale(0.11 -0.11)">
       <use xlink:href="#ArialMT-49"/>
       <use x="55.615234" xlink:href="#ArialMT-46"/>
       <use x="83.398438" xlink:href="#ArialMT-48"/>
       <use x="139.013672" xlink:href="#ArialMT-48"/>
      </g>
     </g>
    </g>
    <g id="text_20">
     <!-- Accuracy -->
     <g style="fill:#262626;" transform="translate(25.567344 185.863125)rotate(-90)scale(0.12 -0.12)">
      <defs>
       <path d="M -0.140625 0 
L 27.34375 71.578125 
L 37.546875 71.578125 
L 66.84375 0 
L 56.0625 0 
L 47.703125 21.6875 
L 17.78125 21.6875 
L 9.90625 0 
z
M 20.515625 29.390625 
L 44.78125 29.390625 
L 37.3125 49.21875 
Q 33.890625 58.25 32.234375 64.0625 
Q 30.859375 57.171875 28.375 50.390625 
z
" id="ArialMT-65"/>
       <path d="M 40.4375 19 
L 49.078125 17.875 
Q 47.65625 8.9375 41.8125 3.875 
Q 35.984375 -1.171875 27.484375 -1.171875 
Q 16.84375 -1.171875 10.375 5.78125 
Q 3.90625 12.75 3.90625 25.734375 
Q 3.90625 34.125 6.6875 40.421875 
Q 9.46875 46.734375 15.15625 49.875 
Q 20.84375 53.03125 27.546875 53.03125 
Q 35.984375 53.03125 41.359375 48.75 
Q 46.734375 44.484375 48.25 36.625 
L 39.703125 35.296875 
Q 38.484375 40.53125 35.375 43.15625 
Q 32.28125 45.796875 27.875 45.796875 
Q 21.234375 45.796875 17.078125 41.03125 
Q 12.9375 36.28125 12.9375 25.984375 
Q 12.9375 15.53125 16.9375 10.796875 
Q 20.953125 6.0625 27.390625 6.0625 
Q 32.5625 6.0625 36.03125 9.234375 
Q 39.5 12.40625 40.4375 19 
z
" id="ArialMT-99"/>
       <path d="M 6.203125 -19.96875 
L 5.21875 -11.71875 
Q 8.109375 -12.5 10.25 -12.5 
Q 13.1875 -12.5 14.9375 -11.515625 
Q 16.703125 -10.546875 17.828125 -8.796875 
Q 18.65625 -7.46875 20.515625 -2.25 
Q 20.75 -1.515625 21.296875 -0.09375 
L 1.609375 51.859375 
L 11.078125 51.859375 
L 21.875 21.828125 
Q 23.96875 16.109375 25.640625 9.8125 
Q 27.15625 15.875 29.25 21.625 
L 40.328125 51.859375 
L 49.125 51.859375 
L 29.390625 -0.875 
Q 26.21875 -9.421875 24.46875 -12.640625 
Q 22.125 -17 19.09375 -19.015625 
Q 16.0625 -21.046875 11.859375 -21.046875 
Q 9.328125 -21.046875 6.203125 -19.96875 
z
" id="ArialMT-121"/>
      </defs>
      <use xlink:href="#ArialMT-65"/>
      <use x="66.699219" xlink:href="#ArialMT-99"/>
      <use x="116.699219" xlink:href="#ArialMT-99"/>
      <use x="166.699219" xlink:href="#ArialMT-117"/>
      <use x="222.314453" xlink:href="#ArialMT-114"/>
      <use x="255.615234" xlink:href="#ArialMT-97"/>
      <use x="311.230469" xlink:href="#ArialMT-99"/>
      <use x="361.230469" xlink:href="#ArialMT-121"/>
     </g>
    </g>
   </g>
   <g id="line2d_19">
    <path clip-path="url(#p9f106189b1)" d="M 80.754545 68.94108 
L 120.209091 81.33516 
L 159.663636 90.44952 
L 199.118182 98.30907 
L 238.572727 111.026592 
L 278.027273 122.79372 
L 317.481818 139.049949 
L 356.936364 161.074485 
L 396.390909 174.09748 
L 435.845455 195.338952 
" style="fill:none;stroke:#0000ff;stroke-linecap:round;stroke-width:1.5;"/>
    <defs>
     <path d="M 0 3 
C 0.795609 3 1.55874 2.683901 2.12132 2.12132 
C 2.683901 1.55874 3 0.795609 3 0 
C 3 -0.795609 2.683901 -1.55874 2.12132 -2.12132 
C 1.55874 -2.683901 0.795609 -3 0 -3 
C -0.795609 -3 -1.55874 -2.683901 -2.12132 -2.12132 
C -2.683901 -1.55874 -3 -0.795609 -3 0 
C -3 0.795609 -2.683901 1.55874 -2.12132 2.12132 
C -1.55874 2.683901 -0.795609 3 0 3 
z
" id="m30c54a900e" style="stroke:#0000ff;"/>
    </defs>
    <g clip-path="url(#p9f106189b1)">
     <use style="fill:#0000ff;stroke:#0000ff;" x="80.754545" xlink:href="#m30c54a900e" y="68.94108"/>
     <use style="fill:#0000ff;stroke:#0000ff;" x="120.209091" xlink:href="#m30c54a900e" y="81.33516"/>
     <use style="fill:#0000ff;stroke:#0000ff;" x="159.663636" xlink:href="#m30c54a900e" y="90.44952"/>
     <use style="fill:#0000ff;stroke:#0000ff;" x="199.118182" xlink:href="#m30c54a900e" y="98.30907"/>
     <use style="fill:#0000ff;stroke:#0000ff;" x="238.572727" xlink:href="#m30c54a900e" y="111.026592"/>
     <use style="fill:#0000ff;stroke:#0000ff;" x="278.027273" xlink:href="#m30c54a900e" y="122.79372"/>
     <use style="fill:#0000ff;stroke:#0000ff;" x="317.481818" xlink:href="#m30c54a900e" y="139.049949"/>
     <use style="fill:#0000ff;stroke:#0000ff;" x="356.936364" xlink:href="#m30c54a900e" y="161.074485"/>
     <use style="fill:#0000ff;stroke:#0000ff;" x="396.390909" xlink:href="#m30c54a900e" y="174.09748"/>
     <use style="fill:#0000ff;stroke:#0000ff;" x="435.845455" xlink:href="#m30c54a900e" y="195.338952"/>
    </g>
   </g>
   <g id="line2d_20">
    <path clip-path="url(#p9f106189b1)" d="M 80.754545 98.02368 
L 120.209091 113.51628 
L 159.663636 121.67028 
L 199.118182 130.73481 
L 238.572727 141.370344 
L 278.027273 150.0462 
L 317.481818 160.59204 
L 356.936364 172.44252 
L 396.390909 180.38512 
L 435.845455 191.03364 
" style="fill:none;stroke:#800080;stroke-linecap:round;stroke-width:1.5;"/>
    <defs>
     <path d="M 0 3 
C 0.795609 3 1.55874 2.683901 2.12132 2.12132 
C 2.683901 1.55874 3 0.795609 3 0 
C 3 -0.795609 2.683901 -1.55874 2.12132 -2.12132 
C 1.55874 -2.683901 0.795609 -3 0 -3 
C -0.795609 -3 -1.55874 -2.683901 -2.12132 -2.12132 
C -2.683901 -1.55874 -3 -0.795609 -3 0 
C -3 0.795609 -2.683901 1.55874 -2.12132 2.12132 
C -1.55874 2.683901 -0.795609 3 0 3 
z
" id="m3983366e46" style="stroke:#800080;"/>
    </defs>
    <g clip-path="url(#p9f106189b1)">
     <use style="fill:#800080;stroke:#800080;" x="80.754545" xlink:href="#m3983366e46" y="98.02368"/>
     <use style="fill:#800080;stroke:#800080;" x="120.209091" xlink:href="#m3983366e46" y="113.51628"/>
     <use style="fill:#800080;stroke:#800080;" x="159.663636" xlink:href="#m3983366e46" y="121.67028"/>
     <use style="fill:#800080;stroke:#800080;" x="199.118182" xlink:href="#m3983366e46" y="130.73481"/>
     <use style="fill:#800080;stroke:#800080;" x="238.572727" xlink:href="#m3983366e46" y="141.370344"/>
     <use style="fill:#800080;stroke:#800080;" x="278.027273" xlink:href="#m3983366e46" y="150.0462"/>
     <use style="fill:#800080;stroke:#800080;" x="317.481818" xlink:href="#m3983366e46" y="160.59204"/>
     <use style="fill:#800080;stroke:#800080;" x="356.936364" xlink:href="#m3983366e46" y="172.44252"/>
     <use style="fill:#800080;stroke:#800080;" x="396.390909" xlink:href="#m3983366e46" y="180.38512"/>
     <use style="fill:#800080;stroke:#800080;" x="435.845455" xlink:href="#m3983366e46" y="191.03364"/>
    </g>
   </g>
   <g id="line2d_21">
    <path clip-path="url(#p9f106189b1)" d="M 80.754545 96.99084 
L 120.209091 109.87416 
L 159.663636 116.56044 
L 199.118182 126.08703 
L 238.572727 140.217912 
L 278.027273 148.42446 
L 317.481818 159.706749 
L 356.936364 171.99405 
L 396.390909 178.65164 
L 435.845455 191.729448 
" style="fill:none;stroke:#ff0000;stroke-linecap:round;stroke-width:1.5;"/>
    <defs>
     <path d="M 0 3 
C 0.795609 3 1.55874 2.683901 2.12132 2.12132 
C 2.683901 1.55874 3 0.795609 3 0 
C 3 -0.795609 2.683901 -1.55874 2.12132 -2.12132 
C 1.55874 -2.683901 0.795609 -3 0 -3 
C -0.795609 -3 -1.55874 -2.683901 -2.12132 -2.12132 
C -2.683901 -1.55874 -3 -0.795609 -3 0 
C -3 0.795609 -2.683901 1.55874 -2.12132 2.12132 
C -1.55874 2.683901 -0.795609 3 0 3 
z
" id="m37a7f17a04" style="stroke:#ff0000;"/>
    </defs>
    <g clip-path="url(#p9f106189b1)">
     <use style="fill:#ff0000;stroke:#ff0000;" x="80.754545" xlink:href="#m37a7f17a04" y="96.99084"/>
     <use style="fill:#ff0000;stroke:#ff0000;" x="120.209091" xlink:href="#m37a7f17a04" y="109.87416"/>
     <use style="fill:#ff0000;stroke:#ff0000;" x="159.663636" xlink:href="#m37a7f17a04" y="116.56044"/>
     <use style="fill:#ff0000;stroke:#ff0000;" x="199.118182" xlink:href="#m37a7f17a04" y="126.08703"/>
     <use style="fill:#ff0000;stroke:#ff0000;" x="238.572727" xlink:href="#m37a7f17a04" y="140.217912"/>
     <use style="fill:#ff0000;stroke:#ff0000;" x="278.027273" xlink:href="#m37a7f17a04" y="148.42446"/>
     <use style="fill:#ff0000;stroke:#ff0000;" x="317.481818" xlink:href="#m37a7f17a04" y="159.706749"/>
     <use style="fill:#ff0000;stroke:#ff0000;" x="356.936364" xlink:href="#m37a7f17a04" y="171.99405"/>
     <use style="fill:#ff0000;stroke:#ff0000;" x="396.390909" xlink:href="#m37a7f17a04" y="178.65164"/>
     <use style="fill:#ff0000;stroke:#ff0000;" x="435.845455" xlink:href="#m37a7f17a04" y="191.729448"/>
    </g>
   </g>
   <g id="line2d_22">
    <path clip-path="url(#p9f106189b1)" d="M 80.754545 97.26264 
L 120.209091 112.34754 
L 159.663636 120.11196 
L 199.118182 128.38374 
L 238.572727 140.359248 
L 278.027273 147.18324 
L 317.481818 157.672131 
L 356.936364 169.011045 
L 396.390909 181.00724 
L 435.845455 189.788796 
" style="fill:none;stroke:#ffd700;stroke-linecap:round;stroke-width:1.5;"/>
    <defs>
     <path d="M 0 3 
C 0.795609 3 1.55874 2.683901 2.12132 2.12132 
C 2.683901 1.55874 3 0.795609 3 0 
C 3 -0.795609 2.683901 -1.55874 2.12132 -2.12132 
C 1.55874 -2.683901 0.795609 -3 0 -3 
C -0.795609 -3 -1.55874 -2.683901 -2.12132 -2.12132 
C -2.683901 -1.55874 -3 -0.795609 -3 0 
C -3 0.795609 -2.683901 1.55874 -2.12132 2.12132 
C -1.55874 2.683901 -0.795609 3 0 3 
z
" id="m432bfe4038" style="stroke:#ffd700;"/>
    </defs>
    <g clip-path="url(#p9f106189b1)">
     <use style="fill:#ffd700;stroke:#ffd700;" x="80.754545" xlink:href="#m432bfe4038" y="97.26264"/>
     <use style="fill:#ffd700;stroke:#ffd700;" x="120.209091" xlink:href="#m432bfe4038" y="112.34754"/>
     <use style="fill:#ffd700;stroke:#ffd700;" x="159.663636" xlink:href="#m432bfe4038" y="120.11196"/>
     <use style="fill:#ffd700;stroke:#ffd700;" x="199.118182" xlink:href="#m432bfe4038" y="128.38374"/>
     <use style="fill:#ffd700;stroke:#ffd700;" x="238.572727" xlink:href="#m432bfe4038" y="140.359248"/>
     <use style="fill:#ffd700;stroke:#ffd700;" x="278.027273" xlink:href="#m432bfe4038" y="147.18324"/>
     <use style="fill:#ffd700;stroke:#ffd700;" x="317.481818" xlink:href="#m432bfe4038" y="157.672131"/>
     <use style="fill:#ffd700;stroke:#ffd700;" x="356.936364" xlink:href="#m432bfe4038" y="169.011045"/>
     <use style="fill:#ffd700;stroke:#ffd700;" x="396.390909" xlink:href="#m432bfe4038" y="181.00724"/>
     <use style="fill:#ffd700;stroke:#ffd700;" x="435.845455" xlink:href="#m432bfe4038" y="189.788796"/>
    </g>
   </g>
   <g id="line2d_23">
    <path clip-path="url(#p9f106189b1)" d="M 80.754545 98.18676 
L 120.209091 108.84132 
L 159.663636 120.40188 
L 199.118182 128.72349 
L 238.572727 140.348376 
L 278.027273 148.72344 
L 317.481818 159.442714 
L 356.936364 171.53199 
L 396.390909 183.50176 
L 435.845455 191.539188 
" style="fill:none;stroke:#008000;stroke-linecap:round;stroke-width:1.5;"/>
    <defs>
     <path d="M 0 3 
C 0.795609 3 1.55874 2.683901 2.12132 2.12132 
C 2.683901 1.55874 3 0.795609 3 0 
C 3 -0.795609 2.683901 -1.55874 2.12132 -2.12132 
C 1.55874 -2.683901 0.795609 -3 0 -3 
C -0.795609 -3 -1.55874 -2.683901 -2.12132 -2.12132 
C -2.683901 -1.55874 -3 -0.795609 -3 0 
C -3 0.795609 -2.683901 1.55874 -2.12132 2.12132 
C -1.55874 2.683901 -0.795609 3 0 3 
z
" id="m0633f00435" style="stroke:#008000;"/>
    </defs>
    <g clip-path="url(#p9f106189b1)">
     <use style="fill:#008000;stroke:#008000;" x="80.754545" xlink:href="#m0633f00435" y="98.18676"/>
     <use style="fill:#008000;stroke:#008000;" x="120.209091" xlink:href="#m0633f00435" y="108.84132"/>
     <use style="fill:#008000;stroke:#008000;" x="159.663636" xlink:href="#m0633f00435" y="120.40188"/>
     <use style="fill:#008000;stroke:#008000;" x="199.118182" xlink:href="#m0633f00435" y="128.72349"/>
     <use style="fill:#008000;stroke:#008000;" x="238.572727" xlink:href="#m0633f00435" y="140.348376"/>
     <use style="fill:#008000;stroke:#008000;" x="278.027273" xlink:href="#m0633f00435" y="148.72344"/>
     <use style="fill:#008000;stroke:#008000;" x="317.481818" xlink:href="#m0633f00435" y="159.442714"/>
     <use style="fill:#008000;stroke:#008000;" x="356.936364" xlink:href="#m0633f00435" y="171.53199"/>
     <use style="fill:#008000;stroke:#008000;" x="396.390909" xlink:href="#m0633f00435" y="183.50176"/>
     <use style="fill:#008000;stroke:#008000;" x="435.845455" xlink:href="#m0633f00435" y="191.539188"/>
    </g>
   </g>
   <g id="line2d_24">
    <path clip-path="url(#p9f106189b1)" d="M 80.754545 98.56728 
L 120.209091 111.09726 
L 159.663636 117.84696 
L 199.118182 128.13912 
L 238.572727 139.239432 
L 278.027273 150.75288 
L 317.481818 160.351303 
L 356.936364 169.704135 
L 396.390909 180.49384 
L 435.845455 193.740768 
" style="fill:none;stroke:#ffa500;stroke-linecap:round;stroke-width:1.5;"/>
    <defs>
     <path d="M 0 3 
C 0.795609 3 1.55874 2.683901 2.12132 2.12132 
C 2.683901 1.55874 3 0.795609 3 0 
C 3 -0.795609 2.683901 -1.55874 2.12132 -2.12132 
C 1.55874 -2.683901 0.795609 -3 0 -3 
C -0.795609 -3 -1.55874 -2.683901 -2.12132 -2.12132 
C -2.683901 -1.55874 -3 -0.795609 -3 0 
C -3 0.795609 -2.683901 1.55874 -2.12132 2.12132 
C -1.55874 2.683901 -0.795609 3 0 3 
z
" id="m5f36d7db52" style="stroke:#ffa500;"/>
    </defs>
    <g clip-path="url(#p9f106189b1)">
     <use style="fill:#ffa500;stroke:#ffa500;" x="80.754545" xlink:href="#m5f36d7db52" y="98.56728"/>
     <use style="fill:#ffa500;stroke:#ffa500;" x="120.209091" xlink:href="#m5f36d7db52" y="111.09726"/>
     <use style="fill:#ffa500;stroke:#ffa500;" x="159.663636" xlink:href="#m5f36d7db52" y="117.84696"/>
     <use style="fill:#ffa500;stroke:#ffa500;" x="199.118182" xlink:href="#m5f36d7db52" y="128.13912"/>
     <use style="fill:#ffa500;stroke:#ffa500;" x="238.572727" xlink:href="#m5f36d7db52" y="139.239432"/>
     <use style="fill:#ffa500;stroke:#ffa500;" x="278.027273" xlink:href="#m5f36d7db52" y="150.75288"/>
     <use style="fill:#ffa500;stroke:#ffa500;" x="317.481818" xlink:href="#m5f36d7db52" y="160.351303"/>
     <use style="fill:#ffa500;stroke:#ffa500;" x="356.936364" xlink:href="#m5f36d7db52" y="169.704135"/>
     <use style="fill:#ffa500;stroke:#ffa500;" x="396.390909" xlink:href="#m5f36d7db52" y="180.49384"/>
     <use style="fill:#ffa500;stroke:#ffa500;" x="435.845455" xlink:href="#m5f36d7db52" y="193.740768"/>
    </g>
   </g>
   <g id="line2d_25">
    <path clip-path="url(#p9f106189b1)" d="M 80.754545 67.20156 
L 120.209091 80.79156 
L 159.663636 88.31136 
L 199.118182 95.12901 
L 238.572727 100.730808 
L 278.027273 108.60576 
L 317.481818 114.867514 
L 356.936364 124.558155 
L 396.390909 130.27728 
L 435.845455 143.147916 
" style="fill:none;stroke:#800080;stroke-dasharray:5.55,2.4;stroke-dashoffset:0;stroke-width:1.5;"/>
    <defs>
     <path d="M -3 3 
L 3 3 
L 3 -3 
L -3 -3 
z
" id="m6355fdcfa2" style="stroke:#800080;stroke-linejoin:miter;"/>
    </defs>
    <g clip-path="url(#p9f106189b1)">
     <use style="fill:#800080;stroke:#800080;stroke-linejoin:miter;" x="80.754545" xlink:href="#m6355fdcfa2" y="67.20156"/>
     <use style="fill:#800080;stroke:#800080;stroke-linejoin:miter;" x="120.209091" xlink:href="#m6355fdcfa2" y="80.79156"/>
     <use style="fill:#800080;stroke:#800080;stroke-linejoin:miter;" x="159.663636" xlink:href="#m6355fdcfa2" y="88.31136"/>
     <use style="fill:#800080;stroke:#800080;stroke-linejoin:miter;" x="199.118182" xlink:href="#m6355fdcfa2" y="95.12901"/>
     <use style="fill:#800080;stroke:#800080;stroke-linejoin:miter;" x="238.572727" xlink:href="#m6355fdcfa2" y="100.730808"/>
     <use style="fill:#800080;stroke:#800080;stroke-linejoin:miter;" x="278.027273" xlink:href="#m6355fdcfa2" y="108.60576"/>
     <use style="fill:#800080;stroke:#800080;stroke-linejoin:miter;" x="317.481818" xlink:href="#m6355fdcfa2" y="114.867514"/>
     <use style="fill:#800080;stroke:#800080;stroke-linejoin:miter;" x="356.936364" xlink:href="#m6355fdcfa2" y="124.558155"/>
     <use style="fill:#800080;stroke:#800080;stroke-linejoin:miter;" x="396.390909" xlink:href="#m6355fdcfa2" y="130.27728"/>
     <use style="fill:#800080;stroke:#800080;stroke-linejoin:miter;" x="435.845455" xlink:href="#m6355fdcfa2" y="143.147916"/>
    </g>
   </g>
   <g id="line2d_26">
    <path clip-path="url(#p9f106189b1)" d="M 80.754545 71.11548 
L 120.209091 80.62848 
L 159.663636 86.37252 
L 199.118182 92.98179 
L 238.572727 98.491176 
L 278.027273 103.39626 
L 317.481818 110.542011 
L 356.936364 118.211625 
L 396.390909 125.66876 
L 435.845455 137.603196 
" style="fill:none;stroke:#ff0000;stroke-dasharray:5.55,2.4;stroke-dashoffset:0;stroke-width:1.5;"/>
    <defs>
     <path d="M -3 3 
L 3 3 
L 3 -3 
L -3 -3 
z
" id="m13c7f7a3a9" style="stroke:#ff0000;stroke-linejoin:miter;"/>
    </defs>
    <g clip-path="url(#p9f106189b1)">
     <use style="fill:#ff0000;stroke:#ff0000;stroke-linejoin:miter;" x="80.754545" xlink:href="#m13c7f7a3a9" y="71.11548"/>
     <use style="fill:#ff0000;stroke:#ff0000;stroke-linejoin:miter;" x="120.209091" xlink:href="#m13c7f7a3a9" y="80.62848"/>
     <use style="fill:#ff0000;stroke:#ff0000;stroke-linejoin:miter;" x="159.663636" xlink:href="#m13c7f7a3a9" y="86.37252"/>
     <use style="fill:#ff0000;stroke:#ff0000;stroke-linejoin:miter;" x="199.118182" xlink:href="#m13c7f7a3a9" y="92.98179"/>
     <use style="fill:#ff0000;stroke:#ff0000;stroke-linejoin:miter;" x="238.572727" xlink:href="#m13c7f7a3a9" y="98.491176"/>
     <use style="fill:#ff0000;stroke:#ff0000;stroke-linejoin:miter;" x="278.027273" xlink:href="#m13c7f7a3a9" y="103.39626"/>
     <use style="fill:#ff0000;stroke:#ff0000;stroke-linejoin:miter;" x="317.481818" xlink:href="#m13c7f7a3a9" y="110.542011"/>
     <use style="fill:#ff0000;stroke:#ff0000;stroke-linejoin:miter;" x="356.936364" xlink:href="#m13c7f7a3a9" y="118.211625"/>
     <use style="fill:#ff0000;stroke:#ff0000;stroke-linejoin:miter;" x="396.390909" xlink:href="#m13c7f7a3a9" y="125.66876"/>
     <use style="fill:#ff0000;stroke:#ff0000;stroke-linejoin:miter;" x="435.845455" xlink:href="#m13c7f7a3a9" y="137.603196"/>
    </g>
   </g>
   <g id="line2d_27">
    <path clip-path="url(#p9f106189b1)" d="M 80.754545 70.6806 
L 120.209091 78.20946 
L 159.663636 84.5424 
L 199.118182 88.44273 
L 238.572727 95.023008 
L 278.027273 100.035 
L 317.481818 104.803149 
L 356.936364 111.538935 
L 396.390909 115.03232 
L 435.845455 122.523732 
" style="fill:none;stroke:#ffd700;stroke-dasharray:5.55,2.4;stroke-dashoffset:0;stroke-width:1.5;"/>
    <defs>
     <path d="M -3 3 
L 3 3 
L 3 -3 
L -3 -3 
z
" id="m5553c60cbe" style="stroke:#ffd700;stroke-linejoin:miter;"/>
    </defs>
    <g clip-path="url(#p9f106189b1)">
     <use style="fill:#ffd700;stroke:#ffd700;stroke-linejoin:miter;" x="80.754545" xlink:href="#m5553c60cbe" y="70.6806"/>
     <use style="fill:#ffd700;stroke:#ffd700;stroke-linejoin:miter;" x="120.209091" xlink:href="#m5553c60cbe" y="78.20946"/>
     <use style="fill:#ffd700;stroke:#ffd700;stroke-linejoin:miter;" x="159.663636" xlink:href="#m5553c60cbe" y="84.5424"/>
     <use style="fill:#ffd700;stroke:#ffd700;stroke-linejoin:miter;" x="199.118182" xlink:href="#m5553c60cbe" y="88.44273"/>
     <use style="fill:#ffd700;stroke:#ffd700;stroke-linejoin:miter;" x="238.572727" xlink:href="#m5553c60cbe" y="95.023008"/>
     <use style="fill:#ffd700;stroke:#ffd700;stroke-linejoin:miter;" x="278.027273" xlink:href="#m5553c60cbe" y="100.035"/>
     <use style="fill:#ffd700;stroke:#ffd700;stroke-linejoin:miter;" x="317.481818" xlink:href="#m5553c60cbe" y="104.803149"/>
     <use style="fill:#ffd700;stroke:#ffd700;stroke-linejoin:miter;" x="356.936364" xlink:href="#m5553c60cbe" y="111.538935"/>
     <use style="fill:#ffd700;stroke:#ffd700;stroke-linejoin:miter;" x="396.390909" xlink:href="#m5553c60cbe" y="115.03232"/>
     <use style="fill:#ffd700;stroke:#ffd700;stroke-linejoin:miter;" x="435.845455" xlink:href="#m5553c60cbe" y="122.523732"/>
    </g>
   </g>
   <g id="line2d_28">
    <path clip-path="url(#p9f106189b1)" d="M 80.754545 69.91956 
L 120.209091 79.26948 
L 159.663636 83.50956 
L 199.118182 86.55372 
L 238.572727 91.511352 
L 278.027273 94.10976 
L 317.481818 98.380903 
L 356.936364 103.54122 
L 396.390909 106.49176 
L 435.845455 112.217076 
" style="fill:none;stroke:#008000;stroke-dasharray:5.55,2.4;stroke-dashoffset:0;stroke-width:1.5;"/>
    <defs>
     <path d="M -3 3 
L 3 3 
L 3 -3 
L -3 -3 
z
" id="mb3444db8b1" style="stroke:#008000;stroke-linejoin:miter;"/>
    </defs>
    <g clip-path="url(#p9f106189b1)">
     <use style="fill:#008000;stroke:#008000;stroke-linejoin:miter;" x="80.754545" xlink:href="#mb3444db8b1" y="69.91956"/>
     <use style="fill:#008000;stroke:#008000;stroke-linejoin:miter;" x="120.209091" xlink:href="#mb3444db8b1" y="79.26948"/>
     <use style="fill:#008000;stroke:#008000;stroke-linejoin:miter;" x="159.663636" xlink:href="#mb3444db8b1" y="83.50956"/>
     <use style="fill:#008000;stroke:#008000;stroke-linejoin:miter;" x="199.118182" xlink:href="#mb3444db8b1" y="86.55372"/>
     <use style="fill:#008000;stroke:#008000;stroke-linejoin:miter;" x="238.572727" xlink:href="#mb3444db8b1" y="91.511352"/>
     <use style="fill:#008000;stroke:#008000;stroke-linejoin:miter;" x="278.027273" xlink:href="#mb3444db8b1" y="94.10976"/>
     <use style="fill:#008000;stroke:#008000;stroke-linejoin:miter;" x="317.481818" xlink:href="#mb3444db8b1" y="98.380903"/>
     <use style="fill:#008000;stroke:#008000;stroke-linejoin:miter;" x="356.936364" xlink:href="#mb3444db8b1" y="103.54122"/>
     <use style="fill:#008000;stroke:#008000;stroke-linejoin:miter;" x="396.390909" xlink:href="#mb3444db8b1" y="106.49176"/>
     <use style="fill:#008000;stroke:#008000;stroke-linejoin:miter;" x="435.845455" xlink:href="#mb3444db8b1" y="112.217076"/>
    </g>
   </g>
   <g id="line2d_29">
    <path clip-path="url(#p9f106189b1)" d="M 80.754545 70.6806 
L 120.209091 77.6115 
L 159.663636 82.65792 
L 199.118182 86.43141 
L 238.572727 90.35892 
L 278.027273 94.8255 
L 317.481818 97.75188 
L 356.936364 101.319255 
L 396.390909 104.9878 
L 435.845455 109.200096 
" style="fill:none;stroke:#ffa500;stroke-dasharray:5.55,2.4;stroke-dashoffset:0;stroke-width:1.5;"/>
    <defs>
     <path d="M -3 3 
L 3 3 
L 3 -3 
L -3 -3 
z
" id="mb2eeb0094c" style="stroke:#ffa500;stroke-linejoin:miter;"/>
    </defs>
    <g clip-path="url(#p9f106189b1)">
     <use style="fill:#ffa500;stroke:#ffa500;stroke-linejoin:miter;" x="80.754545" xlink:href="#mb2eeb0094c" y="70.6806"/>
     <use style="fill:#ffa500;stroke:#ffa500;stroke-linejoin:miter;" x="120.209091" xlink:href="#mb2eeb0094c" y="77.6115"/>
     <use style="fill:#ffa500;stroke:#ffa500;stroke-linejoin:miter;" x="159.663636" xlink:href="#mb2eeb0094c" y="82.65792"/>
     <use style="fill:#ffa500;stroke:#ffa500;stroke-linejoin:miter;" x="199.118182" xlink:href="#mb2eeb0094c" y="86.43141"/>
     <use style="fill:#ffa500;stroke:#ffa500;stroke-linejoin:miter;" x="238.572727" xlink:href="#mb2eeb0094c" y="90.35892"/>
     <use style="fill:#ffa500;stroke:#ffa500;stroke-linejoin:miter;" x="278.027273" xlink:href="#mb2eeb0094c" y="94.8255"/>
     <use style="fill:#ffa500;stroke:#ffa500;stroke-linejoin:miter;" x="317.481818" xlink:href="#mb2eeb0094c" y="97.75188"/>
     <use style="fill:#ffa500;stroke:#ffa500;stroke-linejoin:miter;" x="356.936364" xlink:href="#mb2eeb0094c" y="101.319255"/>
     <use style="fill:#ffa500;stroke:#ffa500;stroke-linejoin:miter;" x="396.390909" xlink:href="#mb2eeb0094c" y="104.9878"/>
     <use style="fill:#ffa500;stroke:#ffa500;stroke-linejoin:miter;" x="435.845455" xlink:href="#mb2eeb0094c" y="109.200096"/>
    </g>
   </g>
   <g id="patch_3">
    <path d="M 63 283.5 
L 63 38.88 
" style="fill:none;stroke:#ffffff;stroke-linecap:square;stroke-linejoin:miter;stroke-width:1.25;"/>
   </g>
   <g id="patch_4">
    <path d="M 453.6 283.5 
L 453.6 38.88 
" style="fill:none;stroke:#ffffff;stroke-linecap:square;stroke-linejoin:miter;stroke-width:1.25;"/>
   </g>
   <g id="patch_5">
    <path d="M 63 283.5 
L 453.6 283.5 
" style="fill:none;stroke:#ffffff;stroke-linecap:square;stroke-linejoin:miter;stroke-width:1.25;"/>
   </g>
   <g id="patch_6">
    <path d="M 63 38.88 
L 453.6 38.88 
" style="fill:none;stroke:#ffffff;stroke-linecap:square;stroke-linejoin:miter;stroke-width:1.25;"/>
   </g>
   <g id="legend_1">
    <g id="patch_7">
     <path d="M 461.3 249.733984 
L 667.885156 249.733984 
Q 670.085156 249.733984 670.085156 247.533984 
L 670.085156 74.846016 
Q 670.085156 72.646016 667.885156 72.646016 
L 461.3 72.646016 
Q 459.1 72.646016 459.1 74.846016 
L 459.1 247.533984 
Q 459.1 249.733984 461.3 249.733984 
z
" style="fill:#eaeaf2;opacity:0.8;stroke:#cccccc;stroke-linejoin:miter;"/>
    </g>
    <g id="line2d_30">
     <path d="M 463.5 81.069609 
L 485.5 81.069609 
" style="fill:none;stroke:#0000ff;stroke-linecap:round;stroke-width:1.5;"/>
    </g>
    <g id="line2d_31">
     <g>
      <use style="fill:#0000ff;stroke:#0000ff;" x="474.5" xlink:href="#m30c54a900e" y="81.069609"/>
     </g>
    </g>
    <g id="text_21">
     <!-- VCL -->
     <g style="fill:#262626;" transform="translate(494.3 84.919609)scale(0.11 -0.11)">
      <defs>
       <path d="M 28.171875 0 
L 0.4375 71.578125 
L 10.6875 71.578125 
L 29.296875 19.578125 
Q 31.546875 13.328125 33.0625 7.859375 
Q 34.71875 13.71875 36.921875 19.578125 
L 56.25 71.578125 
L 65.921875 71.578125 
L 37.890625 0 
z
" id="ArialMT-86"/>
       <path d="M 58.796875 25.09375 
L 68.265625 22.703125 
Q 65.28125 11.03125 57.546875 4.90625 
Q 49.8125 -1.21875 38.625 -1.21875 
Q 27.046875 -1.21875 19.796875 3.484375 
Q 12.546875 8.203125 8.765625 17.140625 
Q 4.984375 26.078125 4.984375 36.328125 
Q 4.984375 47.515625 9.25 55.828125 
Q 13.53125 64.15625 21.40625 68.46875 
Q 29.296875 72.796875 38.765625 72.796875 
Q 49.515625 72.796875 56.828125 67.328125 
Q 64.15625 61.859375 67.046875 51.953125 
L 57.71875 49.75 
Q 55.21875 57.5625 50.484375 61.125 
Q 45.75 64.703125 38.578125 64.703125 
Q 30.328125 64.703125 24.78125 60.734375 
Q 19.234375 56.78125 16.984375 50.109375 
Q 14.75 43.453125 14.75 36.375 
Q 14.75 27.25 17.40625 20.4375 
Q 20.0625 13.625 25.671875 10.25 
Q 31.296875 6.890625 37.84375 6.890625 
Q 45.796875 6.890625 51.3125 11.46875 
Q 56.84375 16.0625 58.796875 25.09375 
z
" id="ArialMT-67"/>
       <path d="M 7.328125 0 
L 7.328125 71.578125 
L 16.796875 71.578125 
L 16.796875 8.453125 
L 52.046875 8.453125 
L 52.046875 0 
z
" id="ArialMT-76"/>
      </defs>
      <use xlink:href="#ArialMT-86"/>
      <use x="66.699219" xlink:href="#ArialMT-67"/>
      <use x="138.916016" xlink:href="#ArialMT-76"/>
     </g>
    </g>
    <g id="line2d_32">
     <path d="M 463.5 96.763516 
L 485.5 96.763516 
" style="fill:none;stroke:#800080;stroke-linecap:round;stroke-width:1.5;"/>
    </g>
    <g id="line2d_33">
     <g>
      <use style="fill:#800080;stroke:#800080;" x="474.5" xlink:href="#m3983366e46" y="96.763516"/>
     </g>
    </g>
    <g id="text_22">
     <!-- VCL + rand. Coreset (200) + VGR -->
     <g style="fill:#262626;" transform="translate(494.3 100.613516)scale(0.11 -0.11)">
      <defs>
       <path d="M 25.046875 11.578125 
L 25.046875 31.203125 
L 5.5625 31.203125 
L 5.5625 39.40625 
L 25.046875 39.40625 
L 25.046875 58.890625 
L 33.34375 58.890625 
L 33.34375 39.40625 
L 52.828125 39.40625 
L 52.828125 31.203125 
L 33.34375 31.203125 
L 33.34375 11.578125 
z
" id="ArialMT-43"/>
       <path d="M 6.59375 0 
L 6.59375 51.859375 
L 14.5 51.859375 
L 14.5 44.484375 
Q 20.21875 53.03125 31 53.03125 
Q 35.6875 53.03125 39.625 51.34375 
Q 43.5625 49.65625 45.515625 46.921875 
Q 47.46875 44.1875 48.25 40.4375 
Q 48.734375 37.984375 48.734375 31.890625 
L 48.734375 0 
L 39.9375 0 
L 39.9375 31.546875 
Q 39.9375 36.921875 38.90625 39.578125 
Q 37.890625 42.234375 35.28125 43.8125 
Q 32.671875 45.40625 29.15625 45.40625 
Q 23.53125 45.40625 19.453125 41.84375 
Q 15.375 38.28125 15.375 28.328125 
L 15.375 0 
z
" id="ArialMT-110"/>
       <path d="M 40.234375 0 
L 40.234375 6.546875 
Q 35.296875 -1.171875 25.734375 -1.171875 
Q 19.53125 -1.171875 14.328125 2.25 
Q 9.125 5.671875 6.265625 11.796875 
Q 3.421875 17.921875 3.421875 25.875 
Q 3.421875 33.640625 6 39.96875 
Q 8.59375 46.296875 13.765625 49.65625 
Q 18.953125 53.03125 25.34375 53.03125 
Q 30.03125 53.03125 33.6875 51.046875 
Q 37.359375 49.078125 39.65625 45.90625 
L 39.65625 71.578125 
L 48.390625 71.578125 
L 48.390625 0 
z
M 12.453125 25.875 
Q 12.453125 15.921875 16.640625 10.984375 
Q 20.84375 6.0625 26.5625 6.0625 
Q 32.328125 6.0625 36.34375 10.765625 
Q 40.375 15.484375 40.375 25.140625 
Q 40.375 35.796875 36.265625 40.765625 
Q 32.171875 45.75 26.171875 45.75 
Q 20.3125 45.75 16.375 40.96875 
Q 12.453125 36.1875 12.453125 25.875 
z
" id="ArialMT-100"/>
       <path d="M 23.390625 -21.046875 
Q 16.109375 -11.859375 11.078125 0.4375 
Q 6.0625 12.75 6.0625 25.921875 
Q 6.0625 37.546875 9.8125 48.1875 
Q 14.203125 60.546875 23.390625 72.796875 
L 29.6875 72.796875 
Q 23.78125 62.640625 21.875 58.296875 
Q 18.890625 51.5625 17.1875 44.234375 
Q 15.09375 35.109375 15.09375 25.875 
Q 15.09375 2.390625 29.6875 -21.046875 
z
" id="ArialMT-40"/>
       <path d="M 12.359375 -21.046875 
L 6.0625 -21.046875 
Q 20.65625 2.390625 20.65625 25.875 
Q 20.65625 35.0625 18.5625 44.09375 
Q 16.890625 51.421875 13.921875 58.15625 
Q 12.015625 62.546875 6.0625 72.796875 
L 12.359375 72.796875 
Q 21.53125 60.546875 25.921875 48.1875 
Q 29.6875 37.546875 29.6875 25.921875 
Q 29.6875 12.75 24.625 0.4375 
Q 19.578125 -11.859375 12.359375 -21.046875 
z
" id="ArialMT-41"/>
       <path d="M 41.21875 28.078125 
L 41.21875 36.46875 
L 71.53125 36.53125 
L 71.53125 9.96875 
Q 64.546875 4.390625 57.125 1.578125 
Q 49.703125 -1.21875 41.890625 -1.21875 
Q 31.34375 -1.21875 22.71875 3.296875 
Q 14.109375 7.8125 9.71875 16.359375 
Q 5.328125 24.90625 5.328125 35.453125 
Q 5.328125 45.90625 9.6875 54.953125 
Q 14.0625 64.015625 22.265625 68.40625 
Q 30.46875 72.796875 41.15625 72.796875 
Q 48.921875 72.796875 55.1875 70.28125 
Q 61.46875 67.78125 65.03125 63.28125 
Q 68.609375 58.796875 70.453125 51.5625 
L 61.921875 49.21875 
Q 60.296875 54.6875 57.90625 57.8125 
Q 55.515625 60.9375 51.0625 62.8125 
Q 46.625 64.703125 41.21875 64.703125 
Q 34.71875 64.703125 29.984375 62.71875 
Q 25.25 60.75 22.34375 57.515625 
Q 19.4375 54.296875 17.828125 50.4375 
Q 15.09375 43.796875 15.09375 36.03125 
Q 15.09375 26.46875 18.390625 20.015625 
Q 21.6875 13.578125 27.984375 10.453125 
Q 34.28125 7.328125 41.359375 7.328125 
Q 47.515625 7.328125 53.375 9.6875 
Q 59.234375 12.0625 62.25 14.75 
L 62.25 28.078125 
z
" id="ArialMT-71"/>
       <path d="M 7.859375 0 
L 7.859375 71.578125 
L 39.59375 71.578125 
Q 49.171875 71.578125 54.140625 69.640625 
Q 59.125 67.71875 62.109375 62.828125 
Q 65.09375 57.953125 65.09375 52.046875 
Q 65.09375 44.4375 60.15625 39.203125 
Q 55.21875 33.984375 44.921875 32.5625 
Q 48.6875 30.765625 50.640625 29 
Q 54.78125 25.203125 58.5 19.484375 
L 70.953125 0 
L 59.03125 0 
L 49.5625 14.890625 
Q 45.40625 21.34375 42.71875 24.75 
Q 40.046875 28.171875 37.921875 29.53125 
Q 35.796875 30.90625 33.59375 31.453125 
Q 31.984375 31.78125 28.328125 31.78125 
L 17.328125 31.78125 
L 17.328125 0 
z
M 17.328125 39.984375 
L 37.703125 39.984375 
Q 44.1875 39.984375 47.84375 41.328125 
Q 51.515625 42.671875 53.421875 45.625 
Q 55.328125 48.578125 55.328125 52.046875 
Q 55.328125 57.125 51.640625 60.390625 
Q 47.953125 63.671875 39.984375 63.671875 
L 17.328125 63.671875 
z
" id="ArialMT-82"/>
      </defs>
      <use xlink:href="#ArialMT-86"/>
      <use x="66.699219" xlink:href="#ArialMT-67"/>
      <use x="138.916016" xlink:href="#ArialMT-76"/>
      <use x="190.78125" xlink:href="#ArialMT-32"/>
      <use x="218.564453" xlink:href="#ArialMT-43"/>
      <use x="276.962891" xlink:href="#ArialMT-32"/>
      <use x="304.746094" xlink:href="#ArialMT-114"/>
      <use x="338.046875" xlink:href="#ArialMT-97"/>
      <use x="393.662109" xlink:href="#ArialMT-110"/>
      <use x="449.277344" xlink:href="#ArialMT-100"/>
      <use x="504.892578" xlink:href="#ArialMT-46"/>
      <use x="532.675781" xlink:href="#ArialMT-32"/>
      <use x="560.458984" xlink:href="#ArialMT-67"/>
      <use x="632.675781" xlink:href="#ArialMT-111"/>
      <use x="688.291016" xlink:href="#ArialMT-114"/>
      <use x="721.591797" xlink:href="#ArialMT-101"/>
      <use x="777.207031" xlink:href="#ArialMT-115"/>
      <use x="827.207031" xlink:href="#ArialMT-101"/>
      <use x="882.822266" xlink:href="#ArialMT-116"/>
      <use x="910.605469" xlink:href="#ArialMT-32"/>
      <use x="938.388672" xlink:href="#ArialMT-40"/>
      <use x="971.689453" xlink:href="#ArialMT-50"/>
      <use x="1027.304688" xlink:href="#ArialMT-48"/>
      <use x="1082.919922" xlink:href="#ArialMT-48"/>
      <use x="1138.535156" xlink:href="#ArialMT-41"/>
      <use x="1171.835938" xlink:href="#ArialMT-32"/>
      <use x="1199.619141" xlink:href="#ArialMT-43"/>
      <use x="1258.017578" xlink:href="#ArialMT-32"/>
      <use x="1285.800781" xlink:href="#ArialMT-86"/>
      <use x="1352.5" xlink:href="#ArialMT-71"/>
      <use x="1430.283203" xlink:href="#ArialMT-82"/>
     </g>
    </g>
    <g id="line2d_34">
     <path d="M 463.5 112.586328 
L 485.5 112.586328 
" style="fill:none;stroke:#ff0000;stroke-linecap:round;stroke-width:1.5;"/>
    </g>
    <g id="line2d_35">
     <g>
      <use style="fill:#ff0000;stroke:#ff0000;" x="474.5" xlink:href="#m37a7f17a04" y="112.586328"/>
     </g>
    </g>
    <g id="text_23">
     <!-- VCL + rand. Coreset (400) + VGR -->
     <g style="fill:#262626;" transform="translate(494.3 116.436328)scale(0.11 -0.11)">
      <use xlink:href="#ArialMT-86"/>
      <use x="66.699219" xlink:href="#ArialMT-67"/>
      <use x="138.916016" xlink:href="#ArialMT-76"/>
      <use x="190.78125" xlink:href="#ArialMT-32"/>
      <use x="218.564453" xlink:href="#ArialMT-43"/>
      <use x="276.962891" xlink:href="#ArialMT-32"/>
      <use x="304.746094" xlink:href="#ArialMT-114"/>
      <use x="338.046875" xlink:href="#ArialMT-97"/>
      <use x="393.662109" xlink:href="#ArialMT-110"/>
      <use x="449.277344" xlink:href="#ArialMT-100"/>
      <use x="504.892578" xlink:href="#ArialMT-46"/>
      <use x="532.675781" xlink:href="#ArialMT-32"/>
      <use x="560.458984" xlink:href="#ArialMT-67"/>
      <use x="632.675781" xlink:href="#ArialMT-111"/>
      <use x="688.291016" xlink:href="#ArialMT-114"/>
      <use x="721.591797" xlink:href="#ArialMT-101"/>
      <use x="777.207031" xlink:href="#ArialMT-115"/>
      <use x="827.207031" xlink:href="#ArialMT-101"/>
      <use x="882.822266" xlink:href="#ArialMT-116"/>
      <use x="910.605469" xlink:href="#ArialMT-32"/>
      <use x="938.388672" xlink:href="#ArialMT-40"/>
      <use x="971.689453" xlink:href="#ArialMT-52"/>
      <use x="1027.304688" xlink:href="#ArialMT-48"/>
      <use x="1082.919922" xlink:href="#ArialMT-48"/>
      <use x="1138.535156" xlink:href="#ArialMT-41"/>
      <use x="1171.835938" xlink:href="#ArialMT-32"/>
      <use x="1199.619141" xlink:href="#ArialMT-43"/>
      <use x="1258.017578" xlink:href="#ArialMT-32"/>
      <use x="1285.800781" xlink:href="#ArialMT-86"/>
      <use x="1352.5" xlink:href="#ArialMT-71"/>
      <use x="1430.283203" xlink:href="#ArialMT-82"/>
     </g>
    </g>
    <g id="line2d_36">
     <path d="M 463.5 128.409141 
L 485.5 128.409141 
" style="fill:none;stroke:#ffd700;stroke-linecap:round;stroke-width:1.5;"/>
    </g>
    <g id="line2d_37">
     <g>
      <use style="fill:#ffd700;stroke:#ffd700;" x="474.5" xlink:href="#m432bfe4038" y="128.409141"/>
     </g>
    </g>
    <g id="text_24">
     <!-- VCL + rand. Coreset (1000) + VGR -->
     <g style="fill:#262626;" transform="translate(494.3 132.259141)scale(0.11 -0.11)">
      <use xlink:href="#ArialMT-86"/>
      <use x="66.699219" xlink:href="#ArialMT-67"/>
      <use x="138.916016" xlink:href="#ArialMT-76"/>
      <use x="190.78125" xlink:href="#ArialMT-32"/>
      <use x="218.564453" xlink:href="#ArialMT-43"/>
      <use x="276.962891" xlink:href="#ArialMT-32"/>
      <use x="304.746094" xlink:href="#ArialMT-114"/>
      <use x="338.046875" xlink:href="#ArialMT-97"/>
      <use x="393.662109" xlink:href="#ArialMT-110"/>
      <use x="449.277344" xlink:href="#ArialMT-100"/>
      <use x="504.892578" xlink:href="#ArialMT-46"/>
      <use x="532.675781" xlink:href="#ArialMT-32"/>
      <use x="560.458984" xlink:href="#ArialMT-67"/>
      <use x="632.675781" xlink:href="#ArialMT-111"/>
      <use x="688.291016" xlink:href="#ArialMT-114"/>
      <use x="721.591797" xlink:href="#ArialMT-101"/>
      <use x="777.207031" xlink:href="#ArialMT-115"/>
      <use x="827.207031" xlink:href="#ArialMT-101"/>
      <use x="882.822266" xlink:href="#ArialMT-116"/>
      <use x="910.605469" xlink:href="#ArialMT-32"/>
      <use x="938.388672" xlink:href="#ArialMT-40"/>
      <use x="971.689453" xlink:href="#ArialMT-49"/>
      <use x="1027.304688" xlink:href="#ArialMT-48"/>
      <use x="1082.919922" xlink:href="#ArialMT-48"/>
      <use x="1138.535156" xlink:href="#ArialMT-48"/>
      <use x="1194.150391" xlink:href="#ArialMT-41"/>
      <use x="1227.451172" xlink:href="#ArialMT-32"/>
      <use x="1255.234375" xlink:href="#ArialMT-43"/>
      <use x="1313.632812" xlink:href="#ArialMT-32"/>
      <use x="1341.416016" xlink:href="#ArialMT-86"/>
      <use x="1408.115234" xlink:href="#ArialMT-71"/>
      <use x="1485.898438" xlink:href="#ArialMT-82"/>
     </g>
    </g>
    <g id="line2d_38">
     <path d="M 463.5 144.231953 
L 485.5 144.231953 
" style="fill:none;stroke:#008000;stroke-linecap:round;stroke-width:1.5;"/>
    </g>
    <g id="line2d_39">
     <g>
      <use style="fill:#008000;stroke:#008000;" x="474.5" xlink:href="#m0633f00435" y="144.231953"/>
     </g>
    </g>
    <g id="text_25">
     <!-- VCL + rand. Coreset (2500) + VGR -->
     <g style="fill:#262626;" transform="translate(494.3 148.081953)scale(0.11 -0.11)">
      <use xlink:href="#ArialMT-86"/>
      <use x="66.699219" xlink:href="#ArialMT-67"/>
      <use x="138.916016" xlink:href="#ArialMT-76"/>
      <use x="190.78125" xlink:href="#ArialMT-32"/>
      <use x="218.564453" xlink:href="#ArialMT-43"/>
      <use x="276.962891" xlink:href="#ArialMT-32"/>
      <use x="304.746094" xlink:href="#ArialMT-114"/>
      <use x="338.046875" xlink:href="#ArialMT-97"/>
      <use x="393.662109" xlink:href="#ArialMT-110"/>
      <use x="449.277344" xlink:href="#ArialMT-100"/>
      <use x="504.892578" xlink:href="#ArialMT-46"/>
      <use x="532.675781" xlink:href="#ArialMT-32"/>
      <use x="560.458984" xlink:href="#ArialMT-67"/>
      <use x="632.675781" xlink:href="#ArialMT-111"/>
      <use x="688.291016" xlink:href="#ArialMT-114"/>
      <use x="721.591797" xlink:href="#ArialMT-101"/>
      <use x="777.207031" xlink:href="#ArialMT-115"/>
      <use x="827.207031" xlink:href="#ArialMT-101"/>
      <use x="882.822266" xlink:href="#ArialMT-116"/>
      <use x="910.605469" xlink:href="#ArialMT-32"/>
      <use x="938.388672" xlink:href="#ArialMT-40"/>
      <use x="971.689453" xlink:href="#ArialMT-50"/>
      <use x="1027.304688" xlink:href="#ArialMT-53"/>
      <use x="1082.919922" xlink:href="#ArialMT-48"/>
      <use x="1138.535156" xlink:href="#ArialMT-48"/>
      <use x="1194.150391" xlink:href="#ArialMT-41"/>
      <use x="1227.451172" xlink:href="#ArialMT-32"/>
      <use x="1255.234375" xlink:href="#ArialMT-43"/>
      <use x="1313.632812" xlink:href="#ArialMT-32"/>
      <use x="1341.416016" xlink:href="#ArialMT-86"/>
      <use x="1408.115234" xlink:href="#ArialMT-71"/>
      <use x="1485.898438" xlink:href="#ArialMT-82"/>
     </g>
    </g>
    <g id="line2d_40">
     <path d="M 463.5 160.054766 
L 485.5 160.054766 
" style="fill:none;stroke:#ffa500;stroke-linecap:round;stroke-width:1.5;"/>
    </g>
    <g id="line2d_41">
     <g>
      <use style="fill:#ffa500;stroke:#ffa500;" x="474.5" xlink:href="#m5f36d7db52" y="160.054766"/>
     </g>
    </g>
    <g id="text_26">
     <!-- VCL + rand. Coreset (5000) + VGR -->
     <g style="fill:#262626;" transform="translate(494.3 163.904766)scale(0.11 -0.11)">
      <use xlink:href="#ArialMT-86"/>
      <use x="66.699219" xlink:href="#ArialMT-67"/>
      <use x="138.916016" xlink:href="#ArialMT-76"/>
      <use x="190.78125" xlink:href="#ArialMT-32"/>
      <use x="218.564453" xlink:href="#ArialMT-43"/>
      <use x="276.962891" xlink:href="#ArialMT-32"/>
      <use x="304.746094" xlink:href="#ArialMT-114"/>
      <use x="338.046875" xlink:href="#ArialMT-97"/>
      <use x="393.662109" xlink:href="#ArialMT-110"/>
      <use x="449.277344" xlink:href="#ArialMT-100"/>
      <use x="504.892578" xlink:href="#ArialMT-46"/>
      <use x="532.675781" xlink:href="#ArialMT-32"/>
      <use x="560.458984" xlink:href="#ArialMT-67"/>
      <use x="632.675781" xlink:href="#ArialMT-111"/>
      <use x="688.291016" xlink:href="#ArialMT-114"/>
      <use x="721.591797" xlink:href="#ArialMT-101"/>
      <use x="777.207031" xlink:href="#ArialMT-115"/>
      <use x="827.207031" xlink:href="#ArialMT-101"/>
      <use x="882.822266" xlink:href="#ArialMT-116"/>
      <use x="910.605469" xlink:href="#ArialMT-32"/>
      <use x="938.388672" xlink:href="#ArialMT-40"/>
      <use x="971.689453" xlink:href="#ArialMT-53"/>
      <use x="1027.304688" xlink:href="#ArialMT-48"/>
      <use x="1082.919922" xlink:href="#ArialMT-48"/>
      <use x="1138.535156" xlink:href="#ArialMT-48"/>
      <use x="1194.150391" xlink:href="#ArialMT-41"/>
      <use x="1227.451172" xlink:href="#ArialMT-32"/>
      <use x="1255.234375" xlink:href="#ArialMT-43"/>
      <use x="1313.632812" xlink:href="#ArialMT-32"/>
      <use x="1341.416016" xlink:href="#ArialMT-86"/>
      <use x="1408.115234" xlink:href="#ArialMT-71"/>
      <use x="1485.898438" xlink:href="#ArialMT-82"/>
     </g>
    </g>
    <g id="line2d_42">
     <path d="M 463.5 175.877578 
L 485.5 175.877578 
" style="fill:none;stroke:#800080;stroke-dasharray:5.55,2.4;stroke-dashoffset:0;stroke-width:1.5;"/>
    </g>
    <g id="line2d_43">
     <g>
      <use style="fill:#800080;stroke:#800080;stroke-linejoin:miter;" x="474.5" xlink:href="#m6355fdcfa2" y="175.877578"/>
     </g>
    </g>
    <g id="text_27">
     <!-- VCL + rand. Coreset (200) -->
     <g style="fill:#262626;" transform="translate(494.3 179.727578)scale(0.11 -0.11)">
      <use xlink:href="#ArialMT-86"/>
      <use x="66.699219" xlink:href="#ArialMT-67"/>
      <use x="138.916016" xlink:href="#ArialMT-76"/>
      <use x="190.78125" xlink:href="#ArialMT-32"/>
      <use x="218.564453" xlink:href="#ArialMT-43"/>
      <use x="276.962891" xlink:href="#ArialMT-32"/>
      <use x="304.746094" xlink:href="#ArialMT-114"/>
      <use x="338.046875" xlink:href="#ArialMT-97"/>
      <use x="393.662109" xlink:href="#ArialMT-110"/>
      <use x="449.277344" xlink:href="#ArialMT-100"/>
      <use x="504.892578" xlink:href="#ArialMT-46"/>
      <use x="532.675781" xlink:href="#ArialMT-32"/>
      <use x="560.458984" xlink:href="#ArialMT-67"/>
      <use x="632.675781" xlink:href="#ArialMT-111"/>
      <use x="688.291016" xlink:href="#ArialMT-114"/>
      <use x="721.591797" xlink:href="#ArialMT-101"/>
      <use x="777.207031" xlink:href="#ArialMT-115"/>
      <use x="827.207031" xlink:href="#ArialMT-101"/>
      <use x="882.822266" xlink:href="#ArialMT-116"/>
      <use x="910.605469" xlink:href="#ArialMT-32"/>
      <use x="938.388672" xlink:href="#ArialMT-40"/>
      <use x="971.689453" xlink:href="#ArialMT-50"/>
      <use x="1027.304688" xlink:href="#ArialMT-48"/>
      <use x="1082.919922" xlink:href="#ArialMT-48"/>
      <use x="1138.535156" xlink:href="#ArialMT-41"/>
     </g>
    </g>
    <g id="line2d_44">
     <path d="M 463.5 191.700391 
L 485.5 191.700391 
" style="fill:none;stroke:#ff0000;stroke-dasharray:5.55,2.4;stroke-dashoffset:0;stroke-width:1.5;"/>
    </g>
    <g id="line2d_45">
     <g>
      <use style="fill:#ff0000;stroke:#ff0000;stroke-linejoin:miter;" x="474.5" xlink:href="#m13c7f7a3a9" y="191.700391"/>
     </g>
    </g>
    <g id="text_28">
     <!-- VCL + rand. Coreset (400) -->
     <g style="fill:#262626;" transform="translate(494.3 195.550391)scale(0.11 -0.11)">
      <use xlink:href="#ArialMT-86"/>
      <use x="66.699219" xlink:href="#ArialMT-67"/>
      <use x="138.916016" xlink:href="#ArialMT-76"/>
      <use x="190.78125" xlink:href="#ArialMT-32"/>
      <use x="218.564453" xlink:href="#ArialMT-43"/>
      <use x="276.962891" xlink:href="#ArialMT-32"/>
      <use x="304.746094" xlink:href="#ArialMT-114"/>
      <use x="338.046875" xlink:href="#ArialMT-97"/>
      <use x="393.662109" xlink:href="#ArialMT-110"/>
      <use x="449.277344" xlink:href="#ArialMT-100"/>
      <use x="504.892578" xlink:href="#ArialMT-46"/>
      <use x="532.675781" xlink:href="#ArialMT-32"/>
      <use x="560.458984" xlink:href="#ArialMT-67"/>
      <use x="632.675781" xlink:href="#ArialMT-111"/>
      <use x="688.291016" xlink:href="#ArialMT-114"/>
      <use x="721.591797" xlink:href="#ArialMT-101"/>
      <use x="777.207031" xlink:href="#ArialMT-115"/>
      <use x="827.207031" xlink:href="#ArialMT-101"/>
      <use x="882.822266" xlink:href="#ArialMT-116"/>
      <use x="910.605469" xlink:href="#ArialMT-32"/>
      <use x="938.388672" xlink:href="#ArialMT-40"/>
      <use x="971.689453" xlink:href="#ArialMT-52"/>
      <use x="1027.304688" xlink:href="#ArialMT-48"/>
      <use x="1082.919922" xlink:href="#ArialMT-48"/>
      <use x="1138.535156" xlink:href="#ArialMT-41"/>
     </g>
    </g>
    <g id="line2d_46">
     <path d="M 463.5 207.523203 
L 485.5 207.523203 
" style="fill:none;stroke:#ffd700;stroke-dasharray:5.55,2.4;stroke-dashoffset:0;stroke-width:1.5;"/>
    </g>
    <g id="line2d_47">
     <g>
      <use style="fill:#ffd700;stroke:#ffd700;stroke-linejoin:miter;" x="474.5" xlink:href="#m5553c60cbe" y="207.523203"/>
     </g>
    </g>
    <g id="text_29">
     <!-- VCL + rand. Coreset (1000) -->
     <g style="fill:#262626;" transform="translate(494.3 211.373203)scale(0.11 -0.11)">
      <use xlink:href="#ArialMT-86"/>
      <use x="66.699219" xlink:href="#ArialMT-67"/>
      <use x="138.916016" xlink:href="#ArialMT-76"/>
      <use x="190.78125" xlink:href="#ArialMT-32"/>
      <use x="218.564453" xlink:href="#ArialMT-43"/>
      <use x="276.962891" xlink:href="#ArialMT-32"/>
      <use x="304.746094" xlink:href="#ArialMT-114"/>
      <use x="338.046875" xlink:href="#ArialMT-97"/>
      <use x="393.662109" xlink:href="#ArialMT-110"/>
      <use x="449.277344" xlink:href="#ArialMT-100"/>
      <use x="504.892578" xlink:href="#ArialMT-46"/>
      <use x="532.675781" xlink:href="#ArialMT-32"/>
      <use x="560.458984" xlink:href="#ArialMT-67"/>
      <use x="632.675781" xlink:href="#ArialMT-111"/>
      <use x="688.291016" xlink:href="#ArialMT-114"/>
      <use x="721.591797" xlink:href="#ArialMT-101"/>
      <use x="777.207031" xlink:href="#ArialMT-115"/>
      <use x="827.207031" xlink:href="#ArialMT-101"/>
      <use x="882.822266" xlink:href="#ArialMT-116"/>
      <use x="910.605469" xlink:href="#ArialMT-32"/>
      <use x="938.388672" xlink:href="#ArialMT-40"/>
      <use x="971.689453" xlink:href="#ArialMT-49"/>
      <use x="1027.304688" xlink:href="#ArialMT-48"/>
      <use x="1082.919922" xlink:href="#ArialMT-48"/>
      <use x="1138.535156" xlink:href="#ArialMT-48"/>
      <use x="1194.150391" xlink:href="#ArialMT-41"/>
     </g>
    </g>
    <g id="line2d_48">
     <path d="M 463.5 223.346016 
L 485.5 223.346016 
" style="fill:none;stroke:#008000;stroke-dasharray:5.55,2.4;stroke-dashoffset:0;stroke-width:1.5;"/>
    </g>
    <g id="line2d_49">
     <g>
      <use style="fill:#008000;stroke:#008000;stroke-linejoin:miter;" x="474.5" xlink:href="#mb3444db8b1" y="223.346016"/>
     </g>
    </g>
    <g id="text_30">
     <!-- VCL + rand. Coreset (2500) -->
     <g style="fill:#262626;" transform="translate(494.3 227.196016)scale(0.11 -0.11)">
      <use xlink:href="#ArialMT-86"/>
      <use x="66.699219" xlink:href="#ArialMT-67"/>
      <use x="138.916016" xlink:href="#ArialMT-76"/>
      <use x="190.78125" xlink:href="#ArialMT-32"/>
      <use x="218.564453" xlink:href="#ArialMT-43"/>
      <use x="276.962891" xlink:href="#ArialMT-32"/>
      <use x="304.746094" xlink:href="#ArialMT-114"/>
      <use x="338.046875" xlink:href="#ArialMT-97"/>
      <use x="393.662109" xlink:href="#ArialMT-110"/>
      <use x="449.277344" xlink:href="#ArialMT-100"/>
      <use x="504.892578" xlink:href="#ArialMT-46"/>
      <use x="532.675781" xlink:href="#ArialMT-32"/>
      <use x="560.458984" xlink:href="#ArialMT-67"/>
      <use x="632.675781" xlink:href="#ArialMT-111"/>
      <use x="688.291016" xlink:href="#ArialMT-114"/>
      <use x="721.591797" xlink:href="#ArialMT-101"/>
      <use x="777.207031" xlink:href="#ArialMT-115"/>
      <use x="827.207031" xlink:href="#ArialMT-101"/>
      <use x="882.822266" xlink:href="#ArialMT-116"/>
      <use x="910.605469" xlink:href="#ArialMT-32"/>
      <use x="938.388672" xlink:href="#ArialMT-40"/>
      <use x="971.689453" xlink:href="#ArialMT-50"/>
      <use x="1027.304688" xlink:href="#ArialMT-53"/>
      <use x="1082.919922" xlink:href="#ArialMT-48"/>
      <use x="1138.535156" xlink:href="#ArialMT-48"/>
      <use x="1194.150391" xlink:href="#ArialMT-41"/>
     </g>
    </g>
    <g id="line2d_50">
     <path d="M 463.5 239.168828 
L 485.5 239.168828 
" style="fill:none;stroke:#ffa500;stroke-dasharray:5.55,2.4;stroke-dashoffset:0;stroke-width:1.5;"/>
    </g>
    <g id="line2d_51">
     <g>
      <use style="fill:#ffa500;stroke:#ffa500;stroke-linejoin:miter;" x="474.5" xlink:href="#mb2eeb0094c" y="239.168828"/>
     </g>
    </g>
    <g id="text_31">
     <!-- VCL + rand. Coreset (5000) -->
     <g style="fill:#262626;" transform="translate(494.3 243.018828)scale(0.11 -0.11)">
      <use xlink:href="#ArialMT-86"/>
      <use x="66.699219" xlink:href="#ArialMT-67"/>
      <use x="138.916016" xlink:href="#ArialMT-76"/>
      <use x="190.78125" xlink:href="#ArialMT-32"/>
      <use x="218.564453" xlink:href="#ArialMT-43"/>
      <use x="276.962891" xlink:href="#ArialMT-32"/>
      <use x="304.746094" xlink:href="#ArialMT-114"/>
      <use x="338.046875" xlink:href="#ArialMT-97"/>
      <use x="393.662109" xlink:href="#ArialMT-110"/>
      <use x="449.277344" xlink:href="#ArialMT-100"/>
      <use x="504.892578" xlink:href="#ArialMT-46"/>
      <use x="532.675781" xlink:href="#ArialMT-32"/>
      <use x="560.458984" xlink:href="#ArialMT-67"/>
      <use x="632.675781" xlink:href="#ArialMT-111"/>
      <use x="688.291016" xlink:href="#ArialMT-114"/>
      <use x="721.591797" xlink:href="#ArialMT-101"/>
      <use x="777.207031" xlink:href="#ArialMT-115"/>
      <use x="827.207031" xlink:href="#ArialMT-101"/>
      <use x="882.822266" xlink:href="#ArialMT-116"/>
      <use x="910.605469" xlink:href="#ArialMT-32"/>
      <use x="938.388672" xlink:href="#ArialMT-40"/>
      <use x="971.689453" xlink:href="#ArialMT-53"/>
      <use x="1027.304688" xlink:href="#ArialMT-48"/>
      <use x="1082.919922" xlink:href="#ArialMT-48"/>
      <use x="1138.535156" xlink:href="#ArialMT-48"/>
      <use x="1194.150391" xlink:href="#ArialMT-41"/>
     </g>
    </g>
   </g>
  </g>
 </g>
 <defs>
  <clipPath id="p9f106189b1">
   <rect height="244.62" width="390.6" x="63" y="38.88"/>
  </clipPath>
 </defs>
</svg>
